<svg xmlns="http://www.w3.org/2000/svg" width="200" height="200" viewBox="0 0 1024 1024"><path fill="none" d="M69.53 0h884.94v1024H69.53z"/><path fill="#005efd" d="M79.56 259.856v503.572l435.095 250.732 434.041-250.732-1.054-502.519L514.655 10.177z"/><path fill="#fff" d="M93.256 268.284V755l422.452 241.25L935 753.947V268.284L513.601 25.979z"/><path fill="#005efd" d="m139.61 294.621 95.868 56.89 371.885-218.075L513.6 79.708z"/><path fill="#0854c1" d="M139.61 293.568v435.094l243.358 139.062 92.707-55.835-241.25-140.116 1.053-320.263zm651.66 56.528v321.78l95.27 55.733V294.364L645.75 154.506l-94.223 55.732z"/><path fill="#005efd" d="m420.893 886.47 93.34 56.052L886.54 727.83l-94.388-57.11zm-35.818-469.643h49.88v280.23l93.395 55.836V278.819l-143.275 81.12z"/><path fill="#0854c1" d="m528.35 752.893 31.605-16.856V295.675l-31.605-16.856z"/></svg>
