<svg viewBox="0 0 2512 1024" version="1.1" xmlns="http://www.w3.org/2000/svg"  width="200" height="200"><path d="M2502.162963 532.859259c0 29.392593-23.703704 53.096296-53.096296 53.096297-29.392593 0-53.096296-23.703704-53.096297-53.096297 0-29.392593 23.703704-53.096296 53.096297-53.096296 29.392593 0 53.096296 23.703704 53.096296 53.096296M771.792593 830.577778l6.637037 71.111111h111.881481l-37.925926-411.496296H685.511111L474.074074 900.740741h113.777778l35.081481-71.111111h148.85926z m-4.740741-80.592593H664.651852l88.177778-178.251852h0.948148l13.274074 178.251852zM1045.807407 720.592593h17.066667l79.644445-108.088889h104.296296l-110.933334 138.429629L1204.148148 900.740741h-110.933333l-43.614815-116.622222h-17.066667L1007.881481 900.740741h-94.814814l88.177777-411.496297h93.866667zM1393.777778 900.740741h94.814815l37.925926-180.148148c20.859259-99.555556-17.066667-111.881481-113.777778-111.881482-67.318519 0-132.740741-0.948148-151.703704 89.125926h94.814815c5.688889-25.6 21.807407-31.288889 44.562963-31.288889 40.77037 0 38.874074 17.066667 33.185185 43.614815l-9.481481 45.511111h-4.740741c-3.792593-33.185185-44.562963-32.237037-72.059259-32.237037-68.266667 0-109.037037 21.807407-123.25926 91.022222-15.17037 73.007407 18.962963 89.125926 85.333334 89.125926 33.185185 0 76.8-6.637037 92.918518-46.459259h2.844445L1393.777778 900.740741z m-26.548148-118.518519c30.340741 0 51.2 1.896296 45.511111 26.548148-6.637037 30.340741-19.911111 35.081481-58.785185 35.081482-14.222222 0-40.77037 0-34.133334-31.288889 5.688889-26.548148 24.651852-30.340741 47.407408-30.340741M1678.222222 612.503704l-8.533333 40.77037h3.792592c18.962963-34.133333 55.940741-43.614815 88.177778-43.614815 40.77037 0 80.592593 6.637037 74.903704 56.888889h4.740741c14.222222-40.77037 55.940741-56.888889 91.97037-56.888889 66.37037 0 94.814815 27.496296 80.592593 94.814815L1972.148148 900.740741h-93.866667l35.081482-166.874074c4.740741-30.340741 10.42963-52.148148-26.548148-52.148148s-49.303704 24.651852-55.940741 54.992592L1796.740741 900.740741h-94.814815l36.977778-174.45926c4.740741-26.548148 6.637037-44.562963-26.548148-44.562962-38.874074 0-50.251852 20.859259-57.837037 54.992592L1620.385185 900.740741h-94.814815l61.62963-288.237037h91.022222zM2189.274074 900.740741h94.814815l37.925926-180.148148c20.859259-99.555556-17.066667-111.881481-113.777778-111.881482-67.318519 0-132.740741-0.948148-151.703704 89.125926h94.814815c5.688889-25.6 21.807407-31.288889 44.562963-31.288889 41.718519 0 38.874074 17.066667 34.133333 43.614815l-9.481481 45.511111h-4.740741c-3.792593-33.185185-44.562963-32.237037-72.059259-32.237037-68.266667 0-109.037037 21.807407-123.259259 91.022222-15.17037 73.007407 18.962963 89.125926 85.333333 89.125926 33.185185 0 76.8-6.637037 92.918519-46.459259h2.844444l-12.325926 43.614815z m-26.548148-118.518519c30.340741 0 51.2 1.896296 45.511111 26.548148-6.637037 30.340741-19.911111 35.081481-58.785185 35.081482-14.222222 0-40.77037 0-34.133333-31.288889 5.688889-26.548148 24.651852-30.340741 47.407407-30.340741M2419.674074 900.740741h-93.866667l60.681482-288.237037h94.814815z" fill="#FF9933"></path><path d="M522.42963 1000.296296c23.703704 7.585185 22.755556 22.755556-3.792593 22.755556-282.548148 0-512.948148-227.555556-512.948148-508.207408S235.140741 6.637037 518.637037 6.637037c26.548148 0 32.237037 14.222222 10.42963 20.859259C316.681481 88.177778 161.185185 283.496296 161.185185 514.844444c0 228.503704 151.703704 421.925926 361.244445 485.451852M257.896296 633.362963c-0.948148-13.274074-1.896296-27.496296-1.896296-41.718519 0-222.814815 181.096296-403.911111 403.911111-403.911111 210.488889 0 274.014815 93.866667 281.6 88.177778 8.533333-6.637037-76.8-193.422222-324.266667-193.422222-222.814815 0-403.911111 181.096296-403.911111 403.911111 0 51.2 9.481481 100.503704 27.496297 146.014815 7.585185 18.962963 18.962963 19.911111 17.066666 0.948148m169.718519-291.081482c105.244444-45.511111 237.037037-47.407407 365.985185-1.896296 87.22963 30.340741 137.481481 73.955556 141.274074 72.059259 6.637037-2.844444-50.251852-93.866667-154.548148-133.688888-126.103704-47.407407-260.740741-22.755556-359.348148 54.992592-10.42963 8.533333-6.637037 14.222222 6.637037 8.533333" fill="#009CDE"></path></svg>
