<svg xmlns="http://www.w3.org/2000/svg" width="200" height="200" viewBox="0 0 2512 1024"><path fill="#f93" d="M2502.163 532.86c0 29.392-23.704 53.096-53.096 53.096-29.393 0-53.097-23.704-53.097-53.097 0-29.392 23.704-53.096 53.097-53.096 29.392 0 53.096 23.704 53.096 53.096M771.793 830.578l6.637 71.11h111.88l-37.926-411.495H685.511L474.074 900.74h113.778l35.081-71.111h148.86zm-4.741-80.593h-102.4l88.178-178.252h.948zm278.755-29.392h17.067l79.645-108.09h104.296l-110.934 138.43 68.267 149.808h-110.933L1049.6 784.119h-17.067l-24.652 116.622h-94.814l88.177-411.497h93.867zm347.97 180.148h94.816l37.926-180.148c20.859-99.556-17.067-111.882-113.778-111.882-67.319 0-132.741-.948-151.704 89.126h94.815c5.689-25.6 21.807-31.289 44.563-31.289 40.77 0 38.874 17.067 33.185 43.615l-9.481 45.511h-4.741c-3.793-33.185-44.563-32.237-72.06-32.237-68.266 0-109.037 21.807-123.259 91.022-15.17 73.008 18.963 89.126 85.334 89.126 33.185 0 76.8-6.637 92.918-46.46h2.845zm-26.547-118.519c30.34 0 51.2 1.897 45.51 26.548-6.636 30.341-19.91 35.082-58.784 35.082-14.223 0-40.77 0-34.134-31.289 5.69-26.548 24.652-30.34 47.408-30.34m310.992-169.72-8.533 40.771h3.792c18.963-34.133 55.941-43.615 88.178-43.615 40.77 0 80.593 6.637 74.904 56.89h4.74c14.223-40.771 55.941-56.89 91.971-56.89 66.37 0 94.815 27.497 80.593 94.815l-41.719 196.267h-93.867l35.082-166.874c4.74-30.341 10.43-52.148-26.548-52.148s-49.304 24.651-55.94 54.992l-34.134 164.03h-94.815l36.978-174.46c4.74-26.548 6.637-44.562-26.548-44.562-38.875 0-50.252 20.859-57.837 54.992l-34.134 164.03h-94.815l61.63-288.237zm511.052 288.238h94.815l37.926-180.148c20.86-99.556-17.067-111.882-113.778-111.882-67.318 0-132.74-.948-151.704 89.126h94.815c5.689-25.6 21.808-31.289 44.563-31.289 41.719 0 38.874 17.067 34.133 43.615l-9.481 45.511h-4.74c-3.793-33.185-44.564-32.237-72.06-32.237-68.267 0-109.037 21.807-123.26 91.022-15.17 73.008 18.964 89.126 85.334 89.126 33.185 0 76.8-6.637 92.919-46.46h2.844zm-26.548-118.519c30.34 0 51.2 1.897 45.511 26.548-6.637 30.341-19.911 35.082-58.785 35.082-14.222 0-40.77 0-34.133-31.289 5.688-26.548 24.651-30.34 47.407-30.34m256.948 118.518h-93.867l60.682-288.237h94.815z"/><path fill="#009cde" d="M522.43 1000.296c23.703 7.585 22.755 22.756-3.793 22.756-282.548 0-512.948-227.556-512.948-508.208S235.14 6.637 518.637 6.637c26.548 0 32.237 14.222 10.43 20.86-212.386 60.68-367.882 256-367.882 487.347 0 228.504 151.704 421.926 361.245 485.452M257.896 633.363c-.948-13.274-1.896-27.496-1.896-41.719 0-222.814 181.096-403.91 403.911-403.91 210.489 0 274.015 93.866 281.6 88.177 8.533-6.637-76.8-193.422-324.267-193.422-222.814 0-403.91 181.096-403.91 403.911 0 51.2 9.48 100.504 27.496 146.015 7.585 18.963 18.963 19.91 17.066.948m169.719-291.082c105.244-45.51 237.037-47.407 365.985-1.896 87.23 30.34 137.481 73.956 141.274 72.06 6.637-2.845-50.252-93.867-154.548-133.69-126.104-47.407-260.74-22.755-359.348 54.993-10.43 8.533-6.637 14.222 6.637 8.533"/></svg>
