<svg xmlns="http://www.w3.org/2000/svg" width="200" height="200" viewBox="62 62 900 900"><path fill="#ff6a00" d="M512 64a448 448 0 1 1 0 896 448 448 0 0 1 0-896"/><path fill="#fff" d="M324.8 602.624a26.75 26.75 0 0 1-21.312-25.92v-142.72A27.71 27.71 0 0 1 324.864 408l132.416-28.672 13.952-56.896h-153.92a97.6 97.6 0 0 0-98.24 96.96v169.344c.384 54.08 44.16 97.856 98.24 98.176h153.92L457.344 630.4zm385.6-280.192c54.016.128 97.92 43.584 98.56 97.6v170.176a98.37 98.37 0 0 1-98.56 98.048H555.328l14.08-56.832 132.608-28.736a27.84 27.84 0 0 0 21.376-25.92v-142.72a26.88 26.88 0 0 0-21.376-25.984l-132.544-28.8-14.08-56.832zM570.368 497.92v13.952H457.28V497.92z"/></svg>
