<svg xmlns="http://www.w3.org/2000/svg" width="200" height="200" viewBox="26 41 448 403"><defs><linearGradient id="a" x1="25119.8" x2="21725.7" y1="11052.5" y2="21551.7" gradientTransform="translate(-492.867 -144.77)scale(.0281)" gradientUnits="userSpaceOnUse"><stop offset="0" style="stop-color:#a92f33"/><stop offset="1" style="stop-color:#e62129"/></linearGradient><linearGradient id="b" x1="27026.6" x2="30514.6" y1="8021.8" y2="16218.5" gradientTransform="translate(-492.867 -144.77)scale(.0281)" gradientUnits="userSpaceOnUse"><stop offset="0" style="stop-color:#a92f33"/><stop offset="1" style="stop-color:#e8443f"/></linearGradient><linearGradient id="c" x1="23046.1" x2="26713.9" y1="14340.2" y2="9900.07" gradientTransform="translate(-492.867 -144.77)scale(.0281)" gradientUnits="userSpaceOnUse"><stop offset="0" style="stop-color:#e62129"/><stop offset="1" style="stop-color:#e8443f"/></linearGradient></defs><path d="m156.005 337.641 91.279-132.409-28.769-45.037-84.086 99.791c-27.926 33.153-32.422 41.413-55.74 80.295l77.344-2.64Z" class="fil1" style="fill:url(#a)"/><path d="m382.616 340.281 37-.14L253.325 51.188l80.294 289.093h49.025ZM253.297 51.188l-42.058 69.506 8.456-13.962 33.602-55.516Z" class="fil2" style="fill:url(#b)"/><path d="M218.487 160.195 333.59 340.281 253.297 51.188l-33.573 55.515L78.661 340.281z" class="fil3" style="fill:url(#c)"/><path d="M116.292 266.849v11.42h-5.04v-1.17q-.2.44-.79.8-.6.37-1.08.37h-13.65a2.46 2.46 0 0 1-1.11-.28 2.4 2.4 0 0 1-.91-.81 2.07 2.07 0 0 1-.36-1.16l-.03-3.14-.02-2q0-1.42.76-2.23.75-.82 1.76-.82h12.91q.9 0 1.56.46.67.46.96.91v-1.53q0-.48-.28-.98a2.4 2.4 0 0 0-.82-.83q-.52-.32-1.23-.32h-15.45v-4.07h17.42q1.1 0 2.09.54.98.54 1.73 1.4t1.17 1.79q.41.92.41 1.65m-6 6.2a.86.86 0 0 0-.23-.58 1.8 1.8 0 0 0-.58-.43q-.35-.15-.56-.15h-9.53q-.65 0-.91.44-.26.45-.26.69 0 .52.34.84.33.31.67.31h9.96q.33 0 .72-.34.38-.35.38-.78m29.848-8.36v3.94q0 1.41-.68 2.38t-2.27.97h-13.75v6.29h-4.83v-10.34h15.71q.309 0 .63-.37.32-.36.32-.81 0-.43-.27-.72-.26-.3-.71-.44a3 3 0 0 0-.89-.14h-14.79v-3.98h18.12q1.89 0 2.65.91.76.92.76 2.31m7.372-3.22v16.78h-4.83v-16.78zm24.067 9.29v4.92q0 1.06-.61 1.83-.62.76-1.73.76h-19.44v-4.12h15.59q.42 0 .87-.3.46-.3.46-.91 0-.33-.19-.62a1.4 1.4 0 0 0-.58-.47 2.1 2.1 0 0 0-.85-.17h-11.8q-.84 0-1.5-.43-.669-.43-1.02-1-.36-.57-.36-.93v-5.45q0-.7.78-1.55t2.01-.85h17.46v3.98h-14.42q-.44 0-.71.38-.27.37-.27.78 0 .38.37.8t1.05.42h11.82q1.57 0 2.32.81t.75 2.12m7.689-9.29v16.78h-4.83v-16.78zm19.028 8.52 8.27 8.26h-6.73l-6.1-6.27-6.07 6.29h-6.84l8.33-8.35-7.34-8.43h5.9l5.91 6.34 6.04-6.34h6.26z" style="fill:#333;white-space:pre" transform="matrix(3.87696 0 0 3.32031 -331.392 -484.11)"/></svg>
