<svg xmlns="http://www.w3.org/2000/svg" viewBox="0 0 21 21" fill="none"><path d="M13.7039 1.80808L13.7435 1.88816L20.4095 15.2197C20.6201 15.6565 20.7385 16.1468 20.7385 16.6648C20.7385 18.5057 19.2464 19.9978 17.4055 19.9978C16.1396 19.9978 15.039 19.2925 14.4748 18.2536L14.4676 18.2399C14.4369 18.1839 14.4091 18.1273 14.3824 18.0696L14.3817 18.0678L7.79261 4.89104L7.78937 4.88455C7.77061 4.84956 7.75221 4.81384 7.73525 4.77777L7.72876 4.76406C7.52205 4.33044 7.40625 3.84559 7.40625 3.33333C7.40625 2.05519 8.12522 0.945524 9.18042 0.386723C9.22515 0.362553 9.27024 0.339826 9.3157 0.319263L9.32039 0.316738C9.75076 0.113997 10.2316 1.32764e-07 10.7396 1.32764e-07C12.0311 -0.000360617 13.1508 0.734486 13.7039 1.80808Z" fill="#00BABA"/><path d="M7.40008 16.6688C7.40008 18.5096 5.90771 20.0016 4.06723 20.0016C2.22638 20.0016 0.734375 18.5096 0.734375 16.6688C0.734375 14.8279 2.22638 13.3359 4.06723 13.3359C5.90771 13.3359 7.40008 14.8283 7.40008 16.6688Z" fill="#00BABA"/></svg>
