<svg xmlns="http://www.w3.org/2000/svg" width="200" height="200" viewBox="0 0 1710 1024"><path fill="currentColor" d="M486.119 373.591c0 20.818 2.25 37.697 6.189 50.075 4.5 12.378 10.127 25.881 18.004 40.51 2.813 4.5 3.939 9.002 3.939 12.94 0 5.627-3.376 11.253-10.69 16.88l-35.447 23.63c-5.063 3.376-10.127 5.064-14.628 5.064-5.627 0-11.253-2.813-16.88-7.877-7.876-8.44-14.628-17.442-20.254-26.444-5.627-9.565-11.253-20.255-17.442-33.195q-65.829 77.643-165.415 77.644c-47.262 0-84.959-13.504-112.528-40.51-27.57-27.007-41.635-63.016-41.635-108.027 0-47.824 16.879-86.646 51.2-115.903s79.894-43.886 137.846-43.886c19.13 0 38.822 1.688 59.64 4.501s42.197 7.315 64.703 12.378V200.3c0-42.76-9.002-72.58-26.444-90.022-18.004-17.442-48.387-25.881-91.71-25.881-19.692 0-39.947 2.25-60.765 7.314s-41.072 11.253-60.765 19.13c-9.002 3.938-15.753 6.189-19.692 7.314s-6.752 1.688-9.002 1.688c-7.877 0-11.816-5.627-11.816-17.442V74.83c0-9.001 1.126-15.753 3.939-19.692s7.877-7.876 15.754-11.815q29.538-15.19 70.892-25.319c27.57-7.314 56.826-10.69 87.772-10.69 66.953 0 115.903 15.191 147.41 45.574 30.946 30.382 46.7 76.519 46.7 138.409V373.59zm-228.431 85.521c18.567 0 37.697-3.376 57.952-10.127s38.259-19.13 53.45-36.01c9.002-10.69 15.754-22.505 19.13-36.008s5.626-29.82 5.626-48.95v-23.63c-16.316-3.939-33.758-7.314-51.762-9.565-18.005-2.25-35.447-3.376-52.888-3.376-37.697 0-65.266 7.314-83.833 22.506-18.567 15.19-27.57 36.571-27.57 64.703 0 26.444 6.752 46.136 20.818 59.64 13.503 14.065 33.196 20.817 59.077 20.817m451.798 60.765c-10.128 0-16.88-1.688-21.38-5.626-4.502-3.376-8.44-11.253-11.816-21.943L544.07 57.389c-3.375-11.253-5.063-18.567-5.063-22.505 0-9.003 4.5-14.066 13.503-14.066h55.138c10.69 0 18.005 1.687 21.943 5.626 4.501 3.376 7.877 11.253 11.253 21.943l94.523 372.466 87.771-372.466c2.814-11.253 6.19-18.567 10.69-21.943 4.502-3.376 12.379-5.626 22.506-5.626h45.011c10.69 0 18.004 1.687 22.506 5.626 4.5 3.376 8.44 11.253 10.69 21.943l88.896 376.967 97.337-376.967c3.375-11.253 7.314-18.567 11.252-21.943 4.501-3.376 11.816-5.626 21.943-5.626h52.326c9.002 0 14.065 4.5 14.065 14.066 0 2.813-.562 5.626-1.125 9.002s-1.688 7.877-3.938 14.066L1079.7 492.87q-5.064 16.88-11.815 21.943c-4.501 3.376-11.816 5.627-21.38 5.627h-48.387c-10.69 0-18.005-1.688-22.506-5.627-4.5-3.938-8.44-11.253-10.69-22.505l-87.209-362.901-86.646 362.338c-2.813 11.253-6.189 18.567-10.69 22.506s-12.378 5.626-22.505 5.626zm722.989 15.191c-29.257 0-58.515-3.376-86.646-10.127-28.132-6.752-50.075-14.066-64.704-22.506-9.002-5.064-15.19-10.69-17.441-15.754-2.251-5.063-3.376-10.69-3.376-15.754v-28.694c0-11.815 4.5-17.442 12.94-17.442q5.064 0 10.128 1.688c3.376 1.125 8.44 3.376 14.066 5.626 19.13 8.44 39.947 15.192 61.89 19.693 22.505 4.5 44.448 6.751 66.954 6.751 35.446 0 63.015-6.189 82.145-18.567s29.257-30.382 29.257-53.45c0-15.754-5.064-28.695-15.191-39.385s-29.257-20.255-56.827-29.257l-81.582-25.319c-41.073-12.94-71.455-32.07-90.022-57.389-18.567-24.756-28.132-52.325-28.132-81.582q0-35.445 15.191-62.453c10.128-18.004 23.631-33.758 40.51-46.136 16.88-12.94 36.009-22.506 58.514-29.257s46.137-9.565 70.893-9.565c12.378 0 25.318.563 37.696 2.25 12.941 1.688 24.757 3.939 36.572 6.19 11.253 2.813 21.943 5.626 32.07 9.002q15.192 5.064 23.631 10.127c7.877 4.501 13.503 9.002 16.88 14.066q5.063 6.751 5.063 18.567v26.444c0 11.816-4.501 18.005-12.94 18.005-4.502 0-11.816-2.251-21.381-6.752q-48.106-21.943-108.026-21.943c-32.07 0-57.39 5.064-74.831 15.754s-26.444 27.006-26.444 50.075c0 15.753 5.626 29.257 16.879 39.947s32.07 21.38 61.89 30.945l79.895 25.319c40.51 12.94 69.767 30.945 87.208 54.013s25.882 49.512 25.882 78.769c0 24.193-5.064 46.136-14.629 65.266-10.127 19.13-23.63 36.009-41.072 49.512-17.442 14.066-38.26 24.193-62.453 31.508-25.319 7.877-51.763 11.815-80.457 11.815"/><path fill="#f90" d="M1538.813 808.51c-185.108 136.72-454.048 209.301-685.292 209.301-324.08 0-616.088-119.842-836.642-319.015-17.442-15.754-1.688-37.134 19.13-24.756 238.558 138.408 532.817 222.24 837.204 222.24 205.363 0 430.98-42.76 638.594-130.532 30.945-14.065 57.389 20.255 27.006 42.76"/><path fill="#f90" d="M1615.895 720.738c-23.631-30.382-156.414-14.628-216.616-7.314-18.004 2.25-20.817-13.503-4.501-25.319 105.776-74.268 279.63-52.887 299.886-28.131 20.255 25.318-5.627 199.173-104.65 282.444-15.192 12.94-29.82 6.189-23.069-10.69 22.506-55.702 72.58-181.17 48.95-210.99"/></svg>
