<svg xmlns="http://www.w3.org/2000/svg" width="200" height="200" viewBox="0 0 1024 1024"><path fill="#20a43a" d="M511.968 1020.934c-2.043-4.088-2.043-9.197-3.065-14.307V340.31c0-7.153 0-14.307-1.022-21.46 0-1.023 0-2.045 2.044-2.045s4.087 0 6.131 1.022c21.461 6.132 41.9 12.264 63.362 17.374q7.665 1.533 6.131 9.197v49.054c0 6.132 2.044 9.198 8.176 10.22 13.285 3.066 26.57 7.153 39.856 9.197h1.022c5.11-2.044 8.176 1.022 12.264 3.066h1.022c9.197 0 1.022-4.088 3.065-6.132-1.021-14.307 0-27.592 0-41.9 0-3.066 0-7.154 3.066-9.197h2.044c21.461 6.131 41.9 12.263 63.362 18.395 4.087 1.022 4.087 4.088 4.087 7.153v48.032c0 5.11 1.022 8.176 6.132 9.198 12.264 3.066 25.549 6.132 37.812 10.22h1.022c6.132-2.044 11.242 3.065 17.374 2.044 1.022 0 2.044-1.022 2.044-2.044 2.044-7.154 0-14.308 1.022-21.461 1.022-9.198 0-18.396 0-26.571v-2.044c0-3.066 1.022-2.044 3.065-2.044 20.44 6.132 41.9 12.263 62.34 18.395 5.11 2.044 4.088 5.11 4.088 9.198 0 52.12 1.022 104.24 1.022 156.359 0 64.383 0 128.766 1.021 193.15 0 7.153-2.043 15.329-5.11 21.46-17.373 33.725-40.878 61.318-69.492 86.867-51.098 45.988-110.372 77.669-173.733 104.24-29.637 12.263-59.273 20.439-88.91 31.68-2.044 1.022-3.066 1.022-3.066 1.022h-1.022c-2.044 1.022-4.088 2.044-6.132 2.044"/><path fill="#18842d" d="M507.88 317.828c2.045 0 4.088 2.044 4.088 4.088v701.062l-2.043-1.022s-40.879-13.285-61.318-20.439c-70.515-25.549-136.942-57.23-194.171-105.262-32.703-26.57-60.296-56.207-80.735-92.998-6.132-10.22-9.198-22.483-9.198-33.724 1.022-114.46 1.022-228.918 1.022-343.377 0-7.154 2.044-9.198 8.176-11.242 20.44-5.11 39.856-11.241 60.295-17.373 3.066 3.066 2.044 7.154 2.044 10.22v33.724c0 8.176 1.022 9.198 9.198 7.154q4.599-1.533 9.198 0c13.285-3.066 26.57-7.154 40.878-10.22 5.11-1.022 5.11-4.088 5.11-8.175V381.19c0-3.066 0-6.132 4.087-7.154l64.384-18.395c3.065 3.066 2.044 7.153 2.044 11.241 0 14.308-1.022 28.615 1.021 43.944 5.11 4.088 9.198-1.022 14.308-1.022 2.044-1.022 4.088 0 7.154 0 12.263-3.065 24.527-7.153 36.79-10.22 6.132-1.021 8.176-4.087 8.176-10.219-1.022-16.351 0-32.702 0-50.076 0-3.065 0-6.131 4.087-7.153 21.462-3.066 43.945-9.198 65.406-14.308"/><path fill="#20a43a" d="M511.968 159.425c10.22 1.022 17.374 5.11 18.396 16.351 1.022 9.198 2.044 21.462 8.175 27.593s18.396 6.132 27.593 9.198c115.481 32.702 230.962 65.405 346.443 97.086 6.132 2.044 10.22 2.044 15.33-3.066l1.022-1.022c16.35-16.351 34.746-21.461 57.23-12.264 1.021 2.044-2.045 3.066-3.067 5.11-18.395 24.527-36.79 48.032-55.185 72.56-3.066 5.109-6.132 6.13-12.264 4.087-131.832-38.834-264.687-76.647-396.519-114.46-4.088-1.021-8.175-2.043-13.285-1.021 3.066-10.22 2.044-21.461 2.044-31.68V172.71c1.022-6.132 1.022-10.22 4.087-13.286"/><path fill="#18842d" d="M511.968 159.425v88.91c0 5.11 0 8.176-5.11 10.22-36.79 10.22-72.558 21.461-108.327 31.68-97.085 27.593-194.171 56.208-290.235 83.8-3.066 1.023-7.154 3.067-10.22-1.021-20.439-26.57-40.878-53.142-62.34-80.735l31.682-4.087c2.043 0 3.065 0 5.11 1.022s3.065 2.043 4.087 3.065c16.351 17.374 34.747 17.374 57.23 11.242 114.459-33.725 229.94-65.405 344.399-97.086 5.11-2.044 9.198-4.088 10.22-10.22 1.021-7.153 4.087-14.307 5.11-21.46 1.021-11.242 8.175-15.33 18.394-15.33"/><path fill="#20a43a" d="M511.968 2.044c16.352-1.022 16.352-1.022 19.418 14.307 4.087 19.417 7.153 39.857 11.241 59.274 0 4.088 3.066 7.153 7.154 8.175 107.305 32.703 214.61 64.384 321.916 97.086 3.066 1.022 7.154 1.022 9.198-2.044l1.022-1.022c17.373-15.329 36.79-23.505 60.295-12.263 0 2.044-3.066 3.066-4.088 4.088-20.439 20.439-41.9 39.856-61.317 60.295-5.11 5.11-9.198 6.132-16.352 4.088-113.437-31.68-227.896-63.361-341.333-95.042-3.066-1.022-6.132-1.022-8.175-2.044-1.022-3.066-2.044-6.132-1.022-8.176V15.33c-1.022-4.087-2.044-9.197 2.043-13.285"/><path fill="#18842d" d="M511.968 2.044v125.7c0 3.066 0 7.154-2.043 10.22-56.208 15.33-111.394 31.68-167.601 47.01-59.274 16.351-118.547 32.703-177.82 50.076-8.176 2.044-12.264 1.022-18.396-5.11-20.439-22.483-41.9-44.966-61.317-66.427 6.132-1.022 16.351-2.044 26.57-4.088 4.089-1.022 7.154 2.044 9.198 4.088 17.374 17.373 34.747 16.351 57.23 9.198 97.086-30.66 196.215-59.274 293.301-88.91 6.132-2.045 9.198-5.11 10.22-11.242 3.066-20.44 8.175-39.856 11.241-60.296 1.022-9.197 4.088-13.285 14.308-11.241 2.044 1.022 3.066 1.022 5.11 1.022"/><path fill="#20a43a" d="M255.457 450.683c-5.11 2.044-11.241 4.087-17.373 5.11-5.11 1.021-4.088-4.088-4.088-6.132v-50.076h1.022c20.44 3.066 20.44 3.066 20.44 23.505-1.022 8.175 0 17.373 0 27.593"/><path fill="#18852d" d="M788.919 398.563v3.066c1.022 18.395 1.022 35.768 0 54.163-7.154-1.022-14.308-4.087-21.462-5.11v-38.834c0-6.131 2.044-9.197 8.176-10.22 5.11-1.021 9.198-4.087 13.286-3.065m-143.074 17.373-12.264-3.066v-42.922c0-6.132 2.044-9.198 8.176-9.198 4.088 0 8.176-3.065 13.285-2.043-3.066 7.153-1.022 15.329-2.044 22.483v31.68c1.022 4.088 1.022 5.11-7.153 3.066"/><path fill="#20a53a" d="M386.268 413.892c2.044 0 5.11-1.022 7.154-1.022-5.11 0-3.066-4.088-3.066-6.131v-37.813c0-3.066 1.022-6.132-3.066-6.132-6.132-1.022-11.242-4.087-17.373-3.065v51.097c0 1.022 0 8.176 2.043 9.198h3.066c1.022 0 2.044 0 3.066-1.022"/><path fill="#24a53e" d="M788.919 455.792V401.63c3.065 2.044 2.043 6.131 2.043 9.197 1.022 14.308-1.021 29.637 1.022 43.944 0 1.022-1.022 1.022-1.022 2.044 0 0-1.021-1.022-2.043-1.022"/></svg>
