<svg xmlns="http://www.w3.org/2000/svg" width="200" height="200" fill="none" viewBox="-8 0 102 40"><path fill="currentColor" d="M51.117 23.702c4.256 3.011 4.952 8.405 2.562 12.208-2.376 3.78-7.14 5.152-11.108 3.226-3.713-1.801-6.312-6.603-4.12-11.816l-1.036-.16-.034-.13c1.32-.445 2.64-.89 4.028-1.36l.575 4.278-.109.056-.866-1.283c-1.067 1.893-.604 4.766 1.026 6.53 1.84 1.988 4.755 2.471 7.108 1.175 2.353-1.295 3.563-4.068 2.92-6.697-.66-2.696-2.959-4.558-5.665-4.59-4.554-.052-8.154-3.321-8.72-7.916-.523-4.244 2.262-8.37 6.425-9.513 3.953-1.086 8.126.813 9.993 4.548 1.864 3.727.91 8.277-2.283 10.895-.218.176-.442.348-.696.549M40.45 16.236c-.011 3.326 2.593 6.02 5.84 6.041 3.272.022 5.95-2.673 5.954-5.995.003-3.3-2.641-6.005-5.88-6.014-3.258-.01-5.903 2.661-5.914 5.968M3.995 12.344c.344-1.413.645-2.727.996-4.026.049-.181.322-.35.528-.428 3.095-1.18 6.55-.174 8.745 2.53 3.583 4.411 2.246 11.383-2.664 13.885-4.138 2.108-9.112.089-10.889-4.499-.397-1.023-.656-2.174-.67-3.27C-.027 11.144.008 5.748.008.354.008.244.02.135.026 0c.928.002 1.819.002 2.792.002v16.211c0 1.604.47 3.041 1.522 4.248 2.138 2.451 5.564 2.421 7.676-.053 2.104-2.463 1.932-6.413-.374-8.673-2-1.958-4.98-1.956-6.983.002-.186.181-.384.351-.664.607m31.245 5.354H22.058c.536 2.069 1.636 3.564 3.586 4.292 2.016.754 3.766.15 5.818-1.953l2.387 1.422c-1.347 1.93-3.067 3.195-5.328 3.553-4.49.71-8.652-2.545-9.298-7.22-.416-3.012.3-5.69 2.379-7.898 4.045-4.301 10.858-2.814 13.112 2.835.646 1.614.847 3.452.528 4.969m-2.874-2.88c-.307-2.522-2.745-4.604-5.256-4.553-2.38.05-4.799 2.253-4.977 4.553zm41.088 2.875h-13.2c.482 1.953 1.483 3.43 3.283 4.17 2.452 1.01 4.447.16 6.097-1.83.786.466 1.56.924 2.402 1.425-.17.233-.313.445-.471.643-3.259 4.044-8.994 4.044-12.257.003-2.838-3.514-2.658-8.849.41-12.149 4.151-4.467 11.202-2.819 13.31 3.112.522 1.466.666 2.964.426 4.626m-2.905-2.878c-.22-2.47-2.772-4.634-5.332-4.545-2.35.082-4.847 2.408-4.873 4.545zm14.857 5.855c.3.921.616 1.856.9 2.8.037.126-.052.363-.16.45-2.444 1.977-6.807 1.488-8.782-.975-.61-.762-.967-1.632-.969-2.623q-.006-8.264-.001-16.527c0-.11.013-.223.022-.361h2.766v4.525h5.032v2.858h-4.982c-.012.228-.03.41-.03.592-.002 2.878.01 5.756-.01 8.635-.005.68.274 1.168.785 1.55 1.218.909 3.403.914 4.607-.02.306-.232.528-.574.822-.904"/></svg>
