<svg xmlns="http://www.w3.org/2000/svg" width="200" height="200" x="0" y="0" viewBox="0 0 38.1 42.7"><g><g><linearGradient id="a" x1="16.85" x2="36.49" y1="37.895" y2="37.895" gradientTransform="matrix(1 0 0 -1 0 44)" gradientUnits="userSpaceOnUse"><stop offset="0" style="stop-color:#fbaa19"/><stop offset="1" style="stop-color:#ef3e23"/></linearGradient><path d="m21 6.8 9.9 5.4L21.8 0C20.3 2 20 4.6 21 6.8" style="fill-rule:evenodd;clip-rule:evenodd;fill:url(#a)"/><linearGradient id="b" x1="15.771" x2="17.311" y1="12.919" y2="17.129" gradientTransform="matrix(1 0 0 -1 0 44)" gradientUnits="userSpaceOnUse"><stop offset="0" style="stop-color:#f78d1e"/><stop offset="1" style="stop-color:#f37121"/></linearGradient><path d="M16.5 26.7c1.2 0 2.2 1 2.2 2.3 0 1.2-1 2.2-2.3 2.2-1.2 0-2.2-1-2.2-2.2.1-1.2 1.1-2.3 2.3-2.3" style="fill-rule:evenodd;clip-rule:evenodd;fill:url(#b)"/><linearGradient id="c" x1="3.56" x2="27.49" y1="11.47" y2="37.12" gradientTransform="matrix(1 0 0 -1 0 44)" gradientUnits="userSpaceOnUse"><stop offset="0" style="stop-color:#febe2d"/><stop offset="1" style="stop-color:#f04e23"/></linearGradient><path d="m9.7 1.8 27.6 15c.7.3.9 1.1.6 1.8q-.15.45-.6.6c-2.1 1.3-4.4 2.2-6.8 2.6l-5.8 11.8s-1.8 4.1-6.8 2.5c2.1-2.1 4.6-4 4.6-7.2 0-3.4-2.7-6.1-6.1-6.1s-6.1 2.7-6.1 6.1c0 4.2 4.2 6 6.5 8.9 1 1.5.9 3.5-.3 4.8-2.8-2.8-8.3-7.6-10.6-10.7-1.2-1.6-1.9-3.5-2-5.5.2-4.4 3.2-8.2 7.4-9.5 1.3-.4 2.6-.5 3.9-.5 1.8.1 3.6.7 5.2 1.6 2.5 1.4 3.6 1.1 5.3-.4 1-.8 2.1-3.5.4-4.1-.6-.2-1.1-.3-1.7-.4-3.1-.6-8.6-1.2-10.6-2.3-3.2-1.8-5.4-5.5-4.1-9" style="fill-rule:evenodd;clip-rule:evenodd;fill:url(#c)"/><linearGradient id="d" x1="20.503" x2="7.263" y1="26.439" y2="6.059" gradientTransform="matrix(1 0 0 -1 0 44)" gradientUnits="userSpaceOnUse"><stop offset="0" style="stop-color:#ea4425"/><stop offset="1" style="stop-color:#fdbb27"/></linearGradient><path d="M22.5 29c1.3-6.7-5.5-13.1-10.8-12.2l.4-.1c-.3.1-.6.1-.8.2-4.2 1.3-7.2 5.1-7.4 9.5 0 2 .7 4 2 5.5 2.3 3.1 7.8 7.9 10.7 10.8 1.2-1.3 1.4-3.3.3-4.8-2.4-2.9-6.5-4.7-6.5-8.9 0-3.4 2.7-6.1 6.1-6.1s6.1 2.7 6 6.1" style="fill-rule:evenodd;clip-rule:evenodd;fill:url(#d)"/><linearGradient id="e" x1=".24" x2="42.04" y1="33.428" y2="33.428" gradientTransform="matrix(1 0 0 -1 0 44)" gradientUnits="userSpaceOnUse"><stop offset="0" style="stop-color:#f47920"/><stop offset="1" style="stop-color:#e93825"/></linearGradient><path d="m9.7 1.8 21 11.4.6.3c.5.4 1 1.2.4 2.6-1 2.1-5 4.2-9.6 2.6 1.4.4 2.4-.1 3.7-1.1 1-.8 2.1-3.5.4-4.1-.6-.2-1.1-.3-1.7-.4-3.1-.6-8.6-1.2-10.6-2.3-3.3-1.8-5.5-5.5-4.2-9" style="fill-rule:evenodd;clip-rule:evenodd;fill:url(#e)"/><linearGradient id="f" x1="-21.84" x2="63.21" y1="36.21" y2="36.21" gradientTransform="matrix(1 0 0 -1 0 44)" gradientUnits="userSpaceOnUse"><stop offset="0" style="stop-color:#fdca0b"/><stop offset="1" style="stop-color:#f5841f"/></linearGradient><path d="M9.7 1.8c2.2 8 15.4 8.7 22 12z" style="fill-rule:evenodd;clip-rule:evenodd;fill:url(#f)"/><linearGradient id="g" x1="8.545" x2="17.395" y1="25.931" y2="-4.939" gradientTransform="matrix(1 0 0 -1 0 44)" gradientUnits="userSpaceOnUse"><stop offset="0" style="stop-color:#e73c25"/><stop offset="1" style="stop-color:#faa21b"/></linearGradient><path d="M16.9 37.9c-2.3-2.9-6.5-4.7-6.5-8.9 0-3.1 2.3-5.6 5.3-6-4.8 0-8.7 3.9-8.7 8.8 0 .6.1 1.2.2 1.8 1.9 2.2 4.7 4.7 7 6.9.9.8 1.8 1.7 2.4 2.3.6-.7.9-1.5 1-2.4s-.2-1.8-.7-2.5" style="fill-rule:evenodd;clip-rule:evenodd;fill:url(#g)"/><linearGradient id="h" x1="-51.37" x2="74.88" y1="20.92" y2="20.92" gradientTransform="matrix(1 0 0 -1 0 44)" gradientUnits="userSpaceOnUse"><stop offset="0" style="stop-color:#fdba12"/><stop offset="1" style="stop-color:#f7921e"/></linearGradient><path d="M22.5 29.7V29c1.3-6.7-5.6-13.1-10.8-12.2 1.1-.3 2.3-.4 3.4-.3 6.9.2 8.9 7.6 7.4 13.2" style="fill-rule:evenodd;clip-rule:evenodd;fill:url(#h)"/><linearGradient id="i" x1=".08" x2="4.81" y1="27.281" y2="26.441" gradientTransform="matrix(1 0 0 -1 0 44)" gradientUnits="userSpaceOnUse"><stop offset="0" style="stop-color:#febe2d"/><stop offset="1" style="stop-color:#f04e23"/></linearGradient><path d="M2.3 14.8c1.2 0 2.3 1 2.3 2.3v2.3H2.3c-1.2 0-2.3-1-2.3-2.3 0-1.2 1-2.3 2.3-2.3" style="fill-rule:evenodd;clip-rule:evenodd;fill:url(#i)"/></g></g></svg>
