<svg xmlns="http://www.w3.org/2000/svg" width="200" height="200" viewBox="26 39 148 122"><path fill="#0260f9" d="m113 51 1 39 11-9 3-1v-2c1.695-1.523 1.695-1.523 4.125-3.375 5.243-4.071 10.255-8.365 15.227-12.763C151.782 58 151.782 58 154 58v-2c4.353-4 4.353-4 8-4q.034 16.793.052 33.587.007 7.797.023 15.594.016 7.518.02 15.036.003 2.876.01 5.75.01 4.012.009 8.025l.01 2.426c-.01 5.468-.01 5.468-1.124 6.582-1.769.1-3.541.13-5.312.133l-3.258.004-3.43-.012-3.43.012-3.257-.004-3.012-.004C137 139 137 139 136 138c-.158-1.998-.251-4-.316-6.004l-.127-3.682-.12-3.876-.13-3.89q-.16-4.773-.307-9.548l-2.3 1.934c-.995.826-1.989 1.652-3.012 2.504l-2.989 2.496C124 120 124 120 121 121v2c-1.487 1.354-3.044 2.631-4.625 3.875a477 477 0 0 0-13.687 11.375c-1.688 1.455-3.376 2.91-5.07 4.357a232 232 0 0 0-3.264 2.864C90.327 149 90.327 149 87 149v-40l-10 8h-2v2a105 105 0 0 1-5.312 4.563l-2.989 2.44C64 128 64 128 61 129v2c-1.427 1.27-2.92 2.465-4.437 3.625-4.42 3.422-8.524 7.038-12.555 10.906C42 147 42 147 38 147q-.034-16.597-.052-33.196-.007-7.707-.023-15.413-.016-7.43-.02-14.86-.003-2.843-.01-5.684-.01-3.965-.009-7.93l-.01-2.398c.01-5.405.01-5.405 1.124-6.519a99 99 0 0 1 5.348-.098l3.271.01 3.444.026 3.455.013Q58.759 60.97 63 61c1.341 2.682 1.215 4.884 1.316 7.883l.127 3.535.12 3.707.13 3.73q.16 4.573.307 9.145l3-1v-2a105 105 0 0 1 5.313-4.562l2.988-2.442C79 77 79 77 82 76v-2c1.695-1.523 1.695-1.523 4.125-3.375 5.243-4.071 10.255-8.365 15.227-12.763C105.782 54 105.782 54 108 54v-2c2-1 2-1 5-1"/></svg>
