<svg xmlns="http://www.w3.org/2000/svg" xmlns:xlink="http://www.w3.org/1999/xlink" xml:space="preserve" version="1.1" x="0" y="0" viewBox="0 0 652 652" style="enable-background:new 0 0 652 652;" width="200" height="200"><style type="text/css">.st0{fill:#005BAC;}.st1{fill:#12B8D7;}</style><path class="st0" d="M223.9,393.3c-1.3,0-2.7,0.4-4,1.3v-6.7h-3.1v19.3h3.1v-1.3c0.4,0.9,1.8,1.8,3.6,1.8c3.1,0,6.3-2.7,6.3-7.2	S227,393.3,223.9,393.3z M223.4,404.5c-0.4,0-2.2,0-3.1-2.7V400c0-2.7,1.8-4,3.1-4c1.8,0,3.6,1.3,3.1,4	C226.6,401.8,225.7,404.5,223.4,404.5z M239.6,393.7l-2.7,9.9l-3.1-9.9h-3.6l4.9,13.9c0,0.4-0.4,0.9-0.9,0.9	c-0.4,0.4-1.3,0.4-1.3,0.4H232v2.7h1.8c2.7,0,3.6-0.9,4.5-3.6l0.9-2.7l3.6-11.7H239.6z M319.4,405.9h2.2l8.1-13l4.5,15.2h9l-9-28.3	h-3.6l-10.8,16.6l-10.8-16.6h-3.6l-9,28.3h9l4.5-15.2l8.1,13C318.1,405.9,319.4,405.9,319.4,405.9z M296.5,392h-24.2	c-1.3,0-2.2,0.9-2.2,2.2s0.9,2.2,2.2,2.2h14.3c-1.8,4.5-7.6,7.6-14.3,7.6c-8.1,0-14.8-4.9-14.8-10.8c0-5.8,6.7-10.3,14.8-10.3	c4.5,0,8.5,1.3,11.2,3.6h9.9c-4-4.5-12.1-7.6-21.1-7.6c-13.5,0-24.2,6.7-24.2,14.8c0,8.1,10.8,14.8,24.2,14.8s24.2-6.7,24.2-14.8	C296.5,393.7,296.5,392,296.5,392z M366.5,379c-13.5,0-24.2,6.7-24.2,14.8c0,8.1,10.8,14.8,24.2,14.8s24.2-6.7,24.2-14.8	C391.2,385.7,379.9,379,366.5,379z M366.5,404.1c-8.1,0-14.8-4.9-14.8-10.3c0-5.8,6.7-10.3,14.8-10.3c8.1,0,14.8,4.9,14.8,10.3	C381.3,399.6,375,404.1,366.5,404.1z"/><path class="st1" d="M153.9,349.8l-0.4,0.9c-10.3,15.2-27.4,24.2-45.3,24.2c-30,0-54.7-24.7-54.7-54.7c0-30,24.7-54.7,54.7-54.7	c17.9,0,35,9,45.3,24.2l0.4,0.9c5.4-9.9,13.5-17.9,23.3-23.8c-16.6-22-42.2-34.5-69.1-34.5c-48.4,0-87.9,39.5-87.9,87.9	s39.5,87.9,87.9,87.9c27.4,0,52.5-12.6,69.1-34.1C167.8,368.2,159.8,359.7,153.9,349.8z"/><path class="st1" d="M593.8,274.5v4c-5.8-2.7-12.6-4-19.3-4c-17,0-31.8,9.4-39.5,23.3v-65.5h-32.7v71.3H449v-71.3h-32.7v65.5	c-8.1-13.9-22.9-22.9-39.5-22.9c-19.3,0-35.9,12.1-42.6,29.6c-6.7-17-23.3-29.6-42.6-29.6S255.7,287,249,304.1	c-6.7-17-23.3-29.1-42.6-29.1c-25.1,0-45.3,20.2-45.3,45.3s20.6,45.3,45.3,45.3c17,0,31.8-9.4,39.5-23.3v23.8h26.5v-45.7	c0-10.3,8.5-18.8,18.8-18.8s18.8,8.5,18.8,18.8v46.2h26.5v-23.8c7.6,13.9,22.9,23.3,39.5,23.3c17,0,31.8-9.4,39.5-22.9v65.5H449	v-72.2h53.4v71.3h32.7v-65.5c7.6,13.9,22.9,23.3,39.5,23.3c6.7,0,13-1.3,19.3-4v4h26.5v-91H593.8z M206.4,339	c-10.3,0-18.8-8.5-18.8-18.8s8.5-18.8,18.8-18.8c10.3,0,18.8,8.5,18.8,18.8C225.7,330.5,217.2,339,206.4,339z M376.8,339	c-10.3,0-18.8-8.5-18.8-18.8s8.5-18.8,18.8-18.8c10.3,0,18.8,8.5,18.8,18.8S387.1,339,376.8,339z M575,339	c-10.3,0-18.8-8.5-18.8-18.8s8.5-18.8,18.8-18.8c10.3,0,18.8,8.5,18.8,18.8S585.3,339,575,339z"/></svg>
