<svg xmlns="http://www.w3.org/2000/svg" width="200" height="200" viewBox="18 229.9 606.22 185.68"><path d="M223.9 393.3c-1.3 0-2.7.4-4 1.3v-6.7h-3.1v19.3h3.1v-1.3c.4.9 1.8 1.8 3.6 1.8 3.1 0 6.3-2.7 6.3-7.2s-2.8-7.2-5.9-7.2m-.5 11.2c-.4 0-2.2 0-3.1-2.7V400c0-2.7 1.8-4 3.1-4 1.8 0 3.6 1.3 3.1 4 .1 1.8-.8 4.5-3.1 4.5m16.2-10.8-2.7 9.9-3.1-9.9h-3.6l4.9 13.9c0 .4-.4.9-.9.9-.4.4-1.3.4-1.3.4h-.9v2.7h1.8c2.7 0 3.6-.9 4.5-3.6l.9-2.7 3.6-11.7h-3.2zm79.8 12.2h2.2l8.1-13 4.5 15.2h9l-9-28.3h-3.6l-10.8 16.6-10.8-16.6h-3.6l-9 28.3h9l4.5-15.2 8.1 13zM296.5 392h-24.2c-1.3 0-2.2.9-2.2 2.2s.9 2.2 2.2 2.2h14.3c-1.8 4.5-7.6 7.6-14.3 7.6-8.1 0-14.8-4.9-14.8-10.8 0-5.8 6.7-10.3 14.8-10.3 4.5 0 8.5 1.3 11.2 3.6h9.9c-4-4.5-12.1-7.6-21.1-7.6-13.5 0-24.2 6.7-24.2 14.8s10.8 14.8 24.2 14.8 24.2-6.7 24.2-14.8zm70-13c-13.5 0-24.2 6.7-24.2 14.8s10.8 14.8 24.2 14.8 24.2-6.7 24.2-14.8c.5-8.1-10.8-14.8-24.2-14.8m0 25.1c-8.1 0-14.8-4.9-14.8-10.3 0-5.8 6.7-10.3 14.8-10.3s14.8 4.9 14.8 10.3c0 5.8-6.3 10.3-14.8 10.3" style="fill:#005bac"/><path fill="#12b8d7" d="m153.9 349.8-.4.9c-10.3 15.2-27.4 24.2-45.3 24.2-30 0-54.7-24.7-54.7-54.7s24.7-54.7 54.7-54.7c17.9 0 35 9 45.3 24.2l.4.9c5.4-9.9 13.5-17.9 23.3-23.8-16.6-22-42.2-34.5-69.1-34.5-48.4 0-87.9 39.5-87.9 87.9s39.5 87.9 87.9 87.9c27.4 0 52.5-12.6 69.1-34.1-9.4-5.8-17.4-14.3-23.3-24.2"/><path fill="#12b8d7" d="M593.8 274.5v4c-5.8-2.7-12.6-4-19.3-4-17 0-31.8 9.4-39.5 23.3v-65.5h-32.7v71.3H449v-71.3h-32.7v65.5c-8.1-13.9-22.9-22.9-39.5-22.9-19.3 0-35.9 12.1-42.6 29.6-6.7-17-23.3-29.6-42.6-29.6S255.7 287 249 304.1c-6.7-17-23.3-29.1-42.6-29.1-25.1 0-45.3 20.2-45.3 45.3s20.6 45.3 45.3 45.3c17 0 31.8-9.4 39.5-23.3v23.8h26.5v-45.7c0-10.3 8.5-18.8 18.8-18.8s18.8 8.5 18.8 18.8v46.2h26.5v-23.8c7.6 13.9 22.9 23.3 39.5 23.3 17 0 31.8-9.4 39.5-22.9v65.5H449v-72.2h53.4v71.3h32.7v-65.5c7.6 13.9 22.9 23.3 39.5 23.3 6.7 0 13-1.3 19.3-4v4h26.5v-91h-26.6zM206.4 339c-10.3 0-18.8-8.5-18.8-18.8s8.5-18.8 18.8-18.8 18.8 8.5 18.8 18.8c.5 10.3-8 18.8-18.8 18.8m170.4 0c-10.3 0-18.8-8.5-18.8-18.8s8.5-18.8 18.8-18.8 18.8 8.5 18.8 18.8-8.5 18.8-18.8 18.8m198.2 0c-10.3 0-18.8-8.5-18.8-18.8s8.5-18.8 18.8-18.8 18.8 8.5 18.8 18.8S585.3 339 575 339"/></svg>
