<svg xmlns="http://www.w3.org/2000/svg" width="200" height="200" fill="none" viewBox="0 0 190 40"><g fill="#ff6c2c" mask="url(#mask1_7795_1449)"><path d="M14.96 9.876h11.302l-1.744 6.692a4.1 4.1 0 0 1-1.508 2.247c-.73.568-1.62.864-2.547.851h-5.255a5.17 5.17 0 0 0-3.178 1.05 5.55 5.55 0 0 0-1.93 2.852 5.2 5.2 0 0 0-.073 2.543c.173.765.507 1.494.977 2.123a5 5 0 0 0 1.805 1.395c.742.358 1.57.556 2.399.544h3.202c.581 0 1.125.259 1.472.728.37.445.507 1.062.333 1.617l-2.003 7.408h-3.499a14.25 14.25 0 0 1-6.64-1.568 15.2 15.2 0 0 1-5.02-4.173 14.71 14.71 0 0 1-2.56-12.704l.21-.753a14.5 14.5 0 0 1 2.016-4.42 14.9 14.9 0 0 1 3.252-3.444 15.3 15.3 0 0 1 4.18-2.222 14.8 14.8 0 0 1 4.81-.766m5.703 30.087 9.892-36.864A4.25 4.25 0 0 1 32.065.852 4.07 4.07 0 0 1 34.625 0h10.46c2.3-.025 4.587.518 6.627 1.58 1.954 1 3.673 2.42 5.02 4.16a15.3 15.3 0 0 1 2.758 5.926 14.1 14.1 0 0 1-.247 6.852l-.198.753a15.7 15.7 0 0 1-2.003 4.42 14.6 14.6 0 0 1-3.227 3.47 14.9 14.9 0 0 1-4.18 2.246 14.8 14.8 0 0 1-4.81.803h-9.051l1.805-6.753a4.2 4.2 0 0 1 1.496-2.223 4.04 4.04 0 0 1 2.548-.852h2.893a5.266 5.266 0 0 0 5.107-3.95c.235-.802.26-1.654.074-2.47a5.6 5.6 0 0 0-.977-2.123 5.2 5.2 0 0 0-1.73-1.469 5.2 5.2 0 0 0-2.474-.58h-5.589L31.62 36.95a4.18 4.18 0 0 1-1.496 2.198A3.98 3.98 0 0 1 27.65 40zm62.388-19.68.148-.555a.72.72 0 0 0-.124-.667.76.76 0 0 0-.63-.284h-16.26c-.655 0-1.31-.148-1.904-.444a4.1 4.1 0 0 1-1.397-1.173 4.2 4.2 0 0 1-.755-1.679 4.7 4.7 0 0 1 0-1.938l1.002-3.803h22.022c1.286 0 2.572.297 3.71.902a8.65 8.65 0 0 1 2.83 2.345 8.4 8.4 0 0 1 1.546 3.321 8.2 8.2 0 0 1-.074 3.877l-3.944 14.679a6.78 6.78 0 0 1-6.615 5.05h-16.26a8.6 8.6 0 0 1-3.945-.927 8.5 8.5 0 0 1-2.955-2.469 9.2 9.2 0 0 1-1.607-3.494A8.36 8.36 0 0 1 57.938 29l.21-.754a7.7 7.7 0 0 1 1.237-2.592 9 9 0 0 1 1.93-2.05 8.7 8.7 0 0 1 5.304-1.802H80.22l-1.001 3.704a4.25 4.25 0 0 1-1.497 2.197 3.98 3.98 0 0 1-2.473.852H69.24a1.04 1.04 0 0 0-1.1.84c-.112.333-.037.703.197.975.198.296.544.481.903.494h9.892c.346 0 .68-.1.952-.297.26-.185.445-.469.495-.79l.099-.407zm29.125-10.407a14.26 14.26 0 0 1 6.677 1.58 14.62 14.62 0 0 1 7.753 10.112 14.2 14.2 0 0 1-.223 6.84l-2.473 9.394a2.88 2.88 0 0 1-1.076 1.605 3.14 3.14 0 0 1-1.83.593h-5.403a1.77 1.77 0 0 1-1.509-.729 1.77 1.77 0 0 1-.296-1.617l3.004-11.346a4.9 4.9 0 0 0 .075-2.469 5.65 5.65 0 0 0-.977-2.123 5.3 5.3 0 0 0-1.806-1.494 5.2 5.2 0 0 0-2.398-.58h-5.602l-4.847 18.136a2.88 2.88 0 0 1-1.076 1.604 3.1 3.1 0 0 1-1.879.593h-5.354a1.8 1.8 0 0 1-1.484-.728 1.74 1.74 0 0 1-.321-1.618L98.55 9.852zm29.463 9.481a2.7 2.7 0 0 0-.853 1.235l-2.3 8.481a1.42 1.42 0 0 0 .248 1.235c.284.395.741.63 1.236.605h20.773l-1.607 5.938a4.25 4.25 0 0 1-1.496 2.198 3.98 3.98 0 0 1-2.473.852h-18.931a8.24 8.24 0 0 1-3.71-.877 8.2 8.2 0 0 1-2.819-2.346 8.65 8.65 0 0 1-1.558-3.345 7.9 7.9 0 0 1 .136-3.827l3.042-11.334a11.6 11.6 0 0 1 4.031-6.05 11.5 11.5 0 0 1 3.128-1.653c1.187-.42 2.449-.63 3.71-.63h13.354c1.298 0 2.572.296 3.709.901a8.65 8.65 0 0 1 2.832 2.346 7.85 7.85 0 0 1 1.521 3.345 8.3 8.3 0 0 1-.099 3.852l-.903 3.395a6.4 6.4 0 0 1-2.473 3.618 6.66 6.66 0 0 1-4.13 1.382H140.96l1.002-3.703a3.96 3.96 0 0 1 1.471-2.198 4.04 4.04 0 0 1 2.547-.852h6.109c.519.025.989-.32 1.1-.84l.198-.752a1.12 1.12 0 0 0-.198-1 1.11 1.11 0 0 0-.902-.445h-9.311c-.495 0-.965.16-1.348.47m19.028 20.605 10.053-37.717A2.75 2.75 0 0 1 171.785.63a2.95 2.95 0 0 1 1.879-.63h5.354a1.87 1.87 0 0 1 1.521.729c.383.444.495 1.062.322 1.617l-7.506 27.827a12.1 12.1 0 0 1-1.768 4 13.2 13.2 0 0 1-2.906 3.074 13.6 13.6 0 0 1-3.709 1.988c-1.373.494-2.832.74-4.291.728M190 4.543c.025 2.136-1.706 3.889-3.845 3.914h-.112a3.89 3.89 0 0 1-3.895-3.89A3.89 3.89 0 0 1 186.043.68 3.866 3.866 0 0 1 190 4.457zm-6.961 0a3.006 3.006 0 0 0 2.918 3.086h.099a2.95 2.95 0 0 0 2.955-2.975v-.086c.111-1.642-1.15-3.062-2.794-3.173s-3.067 1.148-3.178 2.79v.383m2.436 2h-.903V2.703a7.6 7.6 0 0 1 1.496-.11c.458-.038.928.061 1.336.271.247.21.395.518.383.852a1 1 0 0 1-.804.901c.396.148.668.519.705.938.049.334.136.655.284.963h-.964a3.6 3.6 0 0 1-.309-.938c-.074-.42-.309-.617-.804-.617h-.42zm0-2.186h.42c.495 0 .903-.172.903-.567s-.26-.593-.829-.593a1.7 1.7 0 0 0-.494 0z"/></g></svg>
