<svg xmlns="http://www.w3.org/2000/svg" width="200" height="200" viewBox="0 0 7.405 7.517"><g stroke="#fff"><path d="M509.136 366.224c8.879-33.137 42.94-52.802 76.077-43.923a62.12 62.12 0 0 1 43.923 43.923s-6.1-6.078-10-6.078-10 6.078-10 6.078-6.1-6.078-10-6.078-10 6.078-10 6.078-6.1-6.078-10-6.078-10 6.078-10 6.078-6.1-6.078-10-6.078-10 6.078-10 6.078-6.1-6.078-10-6.078-10 6.078-10 6.078-6.1-6.078-10-6.078-10 6.078-10 6.078z" style="color:#000;display:inline;overflow:visible;visibility:visible;fill:#000;fill-opacity:1;stroke:#fff;stroke-width:.99999994;stroke-miterlimit:4;stroke-dasharray:none;stroke-opacity:1;marker:none" transform="translate(-30.864 -19.415)scale(.06074)"/><path d="M567.427 364.896v61.873c0 9.347 5.48 16.173 12.239 16.173 6.757 0 12.236-6.836 12.236-16.183 0 0-1.078-1.027-1.76-1.04-.642-.012-1.695.918-1.695.918 0 6.708-3.932 13.015-8.781 13.015s-8.782-6.307-8.782-13.015v-61.741z" style="color:#000;display:inline;overflow:visible;visibility:visible;fill:#000;fill-opacity:1;stroke:#fff;stroke-width:1;stroke-linecap:butt;stroke-linejoin:miter;stroke-miterlimit:4;stroke-dasharray:none;stroke-dashoffset:117.14173126;stroke-opacity:1;marker:none" transform="translate(-30.864 -19.415)scale(.06074)"/></g></svg>
