<svg xmlns="http://www.w3.org/2000/svg" width="200" height="200" viewBox="-0.963 -0.963 151.5 34.03"><path fill="#1974bb" d="M134.4 18.2V10h-2.3V7.3h2.4V2.2h3.3v5.1h4.3V10h-4.3v7.8q0 1.05.3 1.8c.3.75.4.9.7 1.2s.6.5.9.7c.4.2.7.3 1 .3s.6.1.9.1l.8-.1v3c-.3 0-.7.1-1.2.1-.6 0-1.1 0-1.6-.1s-1.1-.2-1.7-.5c-.7-.3-1.2-.6-1.7-1.1s-.9-1.1-1.2-1.9c-.4-1-.6-1.9-.6-3.1m-14.1 6.5V7h3.3v3.1l-.1 1.3h.1c.4-1.3 1.1-2.5 2.1-3.3 1-.9 2.1-1.3 3.5-1.3l.9.1v3.3c-.3-.1-.6-.1-1-.1-1.1 0-2.1.4-3 1.1s-1.6 1.8-2 3c-.3.9-.4 2-.4 3.2v7.2zm-18.9-8.8c0-2.8.8-5 2.5-6.7s3.8-2.5 6.3-2.5c2.4 0 4.3.8 5.6 2.3 1.3 1.6 2 3.5 2 5.9l-.1 1.5h-12.9c.1 1.9.7 3.3 1.9 4.3s2.6 1.5 4.2 1.5c.9 0 1.8-.2 2.7-.5s1.5-.7 1.9-1l.6-.5 1.4 2.5c-.2.2-.5.4-.8.7-.4.3-1.2.7-2.3 1.1-1.2.5-2.4.7-3.7.7-2.7 0-5-.9-6.7-2.6-1.7-1.9-2.6-4.1-2.6-6.7m3.6-2.1h9.4c0-1.5-.5-2.6-1.3-3.3q-1.2-1.2-3-1.2c-1.3 0-2.5.4-3.4 1.2s-1.4 1.9-1.7 3.3m-20.5 2.1q0-3.9 2.7-6.6c2.7-2.7 4-2.7 6.8-2.7q1.95 0 3.6.6c1.65.6 1.9.9 2.4 1.3l.7.6-1.6 2.4-.6-.6c-.3-.2-.8-.5-1.7-.9-.8-.4-1.7-.6-2.6-.6-1.8 0-3.2.6-4.4 1.8s-1.7 2.7-1.7 4.5.6 3.3 1.8 4.5 2.7 1.8 4.5 1.8c1 0 1.9-.2 2.8-.6s1.6-.8 2-1.2l.6-.6 1.4 2.5-.3.3c-.1.1-.4.4-.9.7-.4.3-.9.6-1.4.9-.5.2-1.2.5-2 .7s-1.6.3-2.5.3c-2.8 0-5-.9-6.8-2.6-1.9-1.7-2.8-3.9-2.8-6.5M78.6 3.5V0H82v3.5zm.1 21.2V7h3.4v17.7zM62 27.9q2.25 1.2 4.8 1.2c2.55 0 3-.4 4-1.2s1.5-2.1 1.5-3.8v-2.4h-.1c-1.1 1.8-2.8 2.8-5.2 2.8s-4.3-.9-5.7-2.6-2.1-3.9-2.1-6.5.7-4.7 2.1-6.4c1.4-1.6 3.3-2.5 5.7-2.5.8 0 1.5.1 2.2.3s1.2.4 1.6.7.7.5 1 .8.5.5.6.7l.2.2h.1V7h3.2v16.9c0 1.4-.3 2.6-.7 3.7-.5 1.1-1.2 1.9-2 2.5q-1.5 1.05-3 1.5c-1.5.45-2.1.5-3.3.5q-3.15 0-6-1.5zm5.8-6.4c1.4 0 2.5-.5 3.4-1.4.9-1 1.3-2.5 1.3-4.6 0-4-1.7-5.9-5-5.9-1.5 0-2.7.5-3.5 1.6-.8 1-1.3 2.5-1.3 4.3 0 1.9.5 3.4 1.4 4.5.9 1 2.2 1.5 3.7 1.5m-14.4-18V0h3.4v3.5zm.1 21.2V7h3.4v17.7zm-19.7-8.8c0-2.8.7-5 2.2-6.7s3.4-2.5 5.8-2.5q1.2 0 2.1.3c.7.2 1.2.4 1.6.7s.7.6 1 .8c.3.3.5.5.6.7l.1.3h.1c0-.3-.1-.7-.1-1.2V.1h3.4v24.6h-3.2v-2.9h-.1c0 .1-.1.2-.2.3s-.3.4-.6.8-.7.7-1.1 1-1 .6-1.7.8-1.5.3-2.3.3c-2.4 0-4.3-.8-5.7-2.5-1.2-1.6-1.9-3.9-1.9-6.6m3.4 0c0 1.9.5 3.4 1.4 4.6s2.1 1.7 3.6 1.7c1.4 0 2.7-.5 3.6-1.6 1-1.1 1.5-2.6 1.5-4.8 0-1.7-.4-3.2-1.3-4.4s-2.1-1.9-3.7-1.9c-1.4 0-2.7.6-3.6 1.7-1 1.2-1.5 2.7-1.5 4.7m-5.99 2.5c-.5-5.8-4.5-9.7-7.6-13.9 1.3-1.9 4.2-1.3 6.3-.9-2.7-1.9-5.9-3-9.3-3.3C14.11.2 8.91 4 4.11 8.2c-2.9-.9-.9-4-.9-6.2C.71 5.4-.09 9.2.01 13.1c.1 3.5 1.6 6.9 3.6 10l4.2 4.8c-1.4 2.3-4.2 1.3-6.3.9 3.4 2.5 7.2 3.3 11.1 3.2 3.5-.1 6.9-1.6 9.9-3.6l4.8-4.2c1.4 1.6 1.7 4.3.9 6.3 2.4-3.4 3.3-7.6 3-12.1m-4.6.2c-1.2 1.5-2.7 3.3-2.7 3.3-1.5 1.7-2.8 2.5-3.4 3-2 1.5-4.5 2.4-7 2.5h-.6l-2.9-2.9c-.9-1.1-1.7-1.6-2.9-3.3-1.5-2.1-2.4-4.5-2.5-7v-.9l2.8-2.5c3.3-2.9 6.9-5.5 11.4-5.5h.2l2.2 2.9c2.1 2.9 4.9 5.7 5.3 9.7 0 0 .1.6.1.7M144.9 5.4V1.6h1.2c.3 0 .6 0 .7.1.2.1.4.2.5.4s.2.4.2.7c0 .2-.1.5-.2.6-.1.2-.3.3-.5.4 0 0 .1.1.1.2l.8 1.5h-.6l-.8-1.5h-.8v1.5h-.6zm.6-2h.8c.2 0 .4-.1.5-.2s.2-.3.2-.5q0-.45-.3-.6c-.1-.1-.3-.1-.5-.1h-.6zm.6-3.4c-1.9 0-3.5 1.5-3.5 3.5 0 1.9 1.5 3.5 3.5 3.5 1.9 0 3.5-1.6 3.5-3.5S148 0 146.1 0m0 6.3c-1.5 0-2.8-1.2-2.8-2.8 0-1.5 1.2-2.8 2.8-2.8 1.5 0 2.8 1.2 2.8 2.8 0 1.5-1.2 2.8-2.8 2.8"/></svg>
