<svg xmlns="http://www.w3.org/2000/svg" width="200" height="200" fill="none" viewBox="0 0 122 24"><g fill="#1966f0" fill-rule="evenodd" clip-rule="evenodd"><path d="m12.818 17.23-4.344.038c-.134 0-.31-.043-.244-.359l2.31-11.262h2.494c4.339 0 6.277 2.488 5.626 6.1-.656 3.607-2.985 5.483-5.842 5.483M.432 23.42h15.037c3.842 0 7.655-4.564 8.798-6.812 1.215-2.383 1.627-6.158 1.21-8.818-.526-3.358-4.023-7.727-6.822-7.727H5.206zm47.843-7.726L41.137.064h-4.89L31.453 23.42h4.904l3.244-15.435 7.09 15.454h4.842L56.327.063H51.48zm8.707-5.189c.306 2.296 2.344 3.688 4.574 3.703h6.057c.79.047 1.115 1.09 1.019 1.732-.263 1.755-1.326 3.784-2.55 3.784H54.59l-.76 3.717h14.74c4.119 0 6.99-10.975 2.698-13.123-.732-.368-1.799-.56-2.986-.56h-6.066c-1.593 0-.273-5.258 1.35-5.258H75.75l.914-4.444H63.742c-5.435-.005-7.238 6.817-6.76 10.449m51.394 3.159 5.469-9.038 1.885 9.038zm-10.42 9.693h4.918l3.316-5.406h10.377l1.12 5.406h4.286L117.232.067h-5.507zm-11.259.009h9.377l.818-2.722-4.554.072c-1.866.024-5.593.038-4.784-3.895L90.989.052h-4.9l-3.535 17.296c-.856 4.162.564 6.018 4.143 6.018"/><path d="M27.855 12.63c-1.005 7.038-7.78 10.234-9.277 10.794h9.985L33.357.067h-12.66c4.378 1.426 8.196 6.3 7.158 12.564m51.14 10.793H74.56l.952-4.488h4.406z"/></g></svg>
