<svg xmlns="http://www.w3.org/2000/svg" version="1.1" viewBox="0 0 256 256" width="200" height="200"><path fill="rgb(4,18,65)" stroke="rgb(4,18,65)" stroke-width="1" opacity="1" d="M 0 0 L 256 0 L 256 256 L 0 256 L 0 0 Z M 152 49 L 145 51 L 129 59 L 74 89 L 88 115 L 88 117 Q 75 121 66 129 L 55 142 L 51 151 L 49 161 Q 49 179 57 190 Q 67 204 88 208 L 101 208 L 111 205 L 180 169 L 166 140 L 188 129 Q 201 120 205 102 L 205 85 Q 203 74 197 67 Q 189 56 177 51 Q 167 47 152 49 Z " /><path fill="rgb(4,18,65)" stroke="rgb(4,18,65)" stroke-width="1" opacity="1" d="M 155.5 65 Q 176.7 63.8 184 76.5 Q 189.5 83 189 95.5 L 186 105.5 L 181 113 L 158.5 126 L 151 111.5 L 146.5 106 L 133.5 99 L 122.5 99 L 103.5 108 L 97 96.5 L 97 94 L 155.5 65 Z " /><path fill="rgb(4,18,65)" stroke="rgb(4,18,65)" stroke-width="1" opacity="1" d="M 126.5 115 Q 133.4 115.6 137 119.5 Q 141.3 122.7 140 131.5 L 134.5 139 Q 131.5 142 124.5 141 L 118 138 L 115 132.5 L 115 123.5 L 120.5 117 L 126.5 115 Z " /><path fill="rgb(4,18,65)" stroke="rgb(4,18,65)" stroke-width="1" opacity="1" d="M 95.5 131 Q 97.8 130.3 97 132.5 Q 101.6 145.4 111.5 153 Q 118.2 159.3 133.5 157 L 150.5 148 L 158 162 L 103.5 190 Q 97.2 192.7 86.5 191 Q 76.6 187.9 71 180.5 Q 64.1 173.4 66 157.5 Q 68.6 146.6 76.5 141 L 95.5 131 Z " /><path fill="rgb(249,251,252)" stroke="rgb(249,251,252)" stroke-width="1" opacity="1" d="M 151.5 49 Q 167 47 176.5 51 Q 189.4 56.1 197 66.5 Q 203 73.5 205 84.5 L 205 101.5 Q 200.6 119.6 187.5 129 L 166 140 L 180 168.5 L 110.5 205 L 100.5 208 L 87.5 208 Q 66.9 204.1 57 189.5 Q 48.8 179.2 49 160.5 L 51 150.5 L 55 141.5 L 65.5 129 Q 75.2 121 88 117 L 88 114.5 L 74 88.5 L 128.5 59 L 144.5 51 L 151.5 49 Z M 156 65 L 97 94 L 97 97 L 104 108 L 123 99 L 134 99 L 147 106 L 151 112 L 159 126 L 181 113 L 186 106 L 189 96 Q 190 83 184 77 Q 177 64 156 65 Z M 127 115 L 121 117 L 115 124 L 115 133 L 118 138 L 125 141 Q 132 142 135 139 L 140 132 Q 141 123 137 120 Q 133 116 127 115 Z M 96 131 L 77 141 Q 69 147 66 158 Q 64 173 71 181 Q 77 188 87 191 Q 97 193 104 190 L 158 162 L 151 148 L 134 157 Q 118 159 112 153 Q 102 145 97 133 Q 98 130 96 131 Z " /></svg>
