<svg xmlns="http://www.w3.org/2000/svg" width="200" height="200" viewBox="0 0 256 256"><path fill="#041241" stroke="#041241" d="M0 0h256v256H0zm152 49-7 2-16 8-55 30 14 26v2q-13 4-22 12l-11 13-4 9-2 10q0 18 8 29 10 14 31 18h13l10-3 69-36-14-29 22-11q13-9 17-27V85q-2-11-8-18-8-11-20-16-10-4-25-2Z"/><path fill="#041241" stroke="#041241" d="M155.5 65q21.2-1.2 28.5 11.5 5.5 6.5 5 19l-3 10-5 7.5-22.5 13-7.5-14.5-4.5-5.5-13-7h-11l-19 9L97 96.5V94z"/><path fill="#041241" stroke="#041241" d="M126.5 115q6.9.6 10.5 4.5 4.3 3.2 3 12l-5.5 7.5q-3 3-10 2l-6.5-3-3-5.5v-9l5.5-6.5z"/><path fill="#041241" stroke="#041241" d="M95.5 131q2.3-.7 1.5 1.5 4.6 12.9 14.5 20.5 6.7 6.3 22 4l17-9 7.5 14-54.5 28q-6.3 2.7-17 1-9.9-3.1-15.5-10.5-6.9-7.1-5-23 2.6-10.9 10.5-16.5z"/><path fill="#f9fbfc" stroke="#f9fbfc" d="M151.5 49q15.5-2 25 2 12.9 5.1 20.5 15.5 6 7 8 18v17q-4.4 18.1-17.5 27.5L166 140l14 28.5-69.5 36.5-10 3h-13q-20.6-3.9-30.5-18.5-8.2-10.3-8-29l2-10 4-9L65.5 129q9.7-8 22.5-12v-2.5l-14-26L128.5 59l16-8zm4.5 16L97 94v3l7 11 19-9h11l13 7 4 6 8 14 22-13 5-7 3-10q1-13-5-19-7-13-28-12Zm-29 50-6 2-6 7v9l3 5 7 3q7 1 10-2l5-7q1-9-3-12-4-4-10-5Zm-31 16-19 10q-8 6-11 17-2 15 5 23 6 7 16 10 10 2 17-1l54-28-7-14-17 9q-16 2-22-4-10-8-15-20 1-3-1-2Z"/></svg>
