<svg xmlns="http://www.w3.org/2000/svg" width="200" height="200" viewBox="-1.5 -32 128 128"><path fill="#cf0000" d="M124.6 35.7c0 3.9-1.2 7.3-3.8 10.2-3.1 3.3-6.9 5-11.6 5-5.5 0-9.49-2.2-12.19-6.8-1.8-3.1-2.8-6.7-2.8-11 0-6.2 2.3-12.3 6.49-18.1 5-6.8 11.2-11.8 18.9-14.9h.2c.4 0 .7.3.9 1q.3.6.3.9c0 .3-.1.4-.2.5-5.9 3.1-10.3 7.8-13.5 14-1.5 2.9-2.6 5.8-3.4 8.9q2.25-2.7 5.7-3.6c.7-.2 1.6-.3 2.3-.3 3.9 0 7.1 1.6 9.6 4.7 2.1 2.6 3.1 5.8 3.1 9.5m-7.9 2c0-2.5-.7-4.8-2.1-7.1-1.5-2.4-3.3-3.6-5.6-3.6-2.2 0-4.1 1-5.8 2.9-.2 1-.3 2-.3 3.3 0 9.3 2.4 14 7.1 14q3.9 0 5.7-4.2c.7-1.5 1-3.3 1-5.3"/><path fill="#404040" d="M13.56 32.3V21.1h5.45v29.2h-5.45v-3.1c-.59 1.2-1.36 2.1-2.3 2.7q-1.38.9-3.27.9c-2.4 0-4.27-.9-5.59-2.9-1.32-1.9-2-4.7-2-8.2s.68-6.2 2.01-8.1c1.35-1.9 3.27-2.9 5.76-2.9 1.13 0 2.13.4 3.02.9.91.6 1.68 1.5 2.37 2.7M5.9 39.8c0 2.1.34 3.7 1.01 4.7.68 1.2 1.61 1.8 2.8 1.8s2.12-.6 2.81-1.8c.68-1 1.04-2.6 1.04-4.7 0-2-.36-3.6-1.04-4.8-.69-1.1-1.62-1.7-2.81-1.7s-2.12.6-2.8 1.7c-.67 1.2-1.01 2.8-1.01 4.8m29.21 12.7c-.7 2.1-1.6 3.4-2.6 4.3-1.1 1-2.3 1.4-3.8 1.4h-4.5V54h2.2c1.2 0 2-.2 2.5-.5.5-.4 1-1.3 1.6-2.7l.4-1.2-8-20.3h5.7l4.8 13.6 4.7-13.6h5.8zm29.9-15.9v13.7h-5.4V37.5c0-1.5-.2-2.7-.7-3.3-.4-.7-1.1-1-2.1-1s-1.8.4-2.3 1.3c-.6 1-.9 2.1-.9 3.7v12.1h-5.4v-21h5.4v3.1c.4-1.1 1.1-2.1 2-2.7s2.1-1 3.3-1c2.1 0 3.6.7 4.6 2.1 1 1.2 1.5 3.2 1.5 5.8"/><path fill="#008fd4" d="m89.71 29.3-6.8 21h-6.7l-6.7-21h5.5l4.5 16.4 4.6-16.4z"/></svg>
