<svg xmlns="http://www.w3.org/2000/svg" width="200" height="200" viewBox="0 0 1024 1024"><path fill="currentColor" d="M575.83 211.058 458.296 79.644H79.644v659.912h864.712V211.058zm-140.858-79.645 70.656 79.645H131.982v-79.645zm457.046 555.805H131.982V263.396h760.036z"/><path d="M485.831 713.273h52.338v204.8H485.83z"/><path fill="currentColor" d="M79.644 838.542h864.712v52.338H79.644z"/><path fill="currentColor" d="M273.522 807.822h456.362V921.6H273.522zm-33.223-216.178V371.712h150.755v37.205h-106.61v52.11h91.82v37.206h-91.82v93.411zm236.885 0V408.917h-65.308v-37.205h174.762v37.205h-65.08v182.727zm138.126 0V371.712h71.225a261.7 261.7 0 0 1 53.02 3.755 57.7 57.7 0 0 1 31.63 21.504 68.27 68.27 0 0 1 12.744 42.894 72 72 0 0 1-7.282 34.133 61.44 61.44 0 0 1-18.66 21.732 65 65 0 0 1-22.755 10.354 247 247 0 0 1-45.511 3.185h-29.81v82.375zm44.601-182.727v62.464h24.235a111.6 111.6 0 0 0 35.157-3.527 28.1 28.1 0 0 0 13.881-10.809 29.8 29.8 0 0 0 5.006-17.066 28.67 28.67 0 0 0-7.054-19.798 30.6 30.6 0 0 0-17.863-9.785 228 228 0 0 0-31.972-1.479z"/></svg>
