<svg xmlns="http://www.w3.org/2000/svg" viewBox="-11 -1 209 219" fill="none"><g xmlns="http://www.w3.org/2000/svg"><path d="M101.56 201.22c-33.24 4.25-67.28-14-85.84-41.13C4.99995 144.35-.0900482 125.88-.482179e-4 106.88.0799518 89 4.58995 63 18.08 49.82c20.53-20.07 23.61 26.94 25 38.24 2.313 18.253 4.647 36.503 7 54.75 3.67 28.48 17.41 63.09 51.48 58.41z" fill="#fbb03b"/><path d="M171.78 214.88C143.1 224.8 108.92 210.21 94.2399 184.19c-9.45-17.153-11.481-37.423-5.6199-56.11C94.38 110.52 104.62 117.42 109.62 130.42c10.38 26.65 21.2 99.58 62.16 84.46z" fill="#1b4964"/><path d="M77.1499 15.46C110.32 11.22 144.36 29.15 162.96 56.26c10.78 15.72 15.76 34.14 15.7 53.12C178.6 126.38 173.98 156.63 159.29 167.96c-20.67 15.94-22.57-30.53-23.94-41.26C133.02 108.44 130.74 90.18 128.35 71.93 124.65 43.57 110.56 10.87 77.1499 15.46z" fill="#e6302b"/><path d="M5.44995 3.12C33.54-6.59 66.94 7.22 82 32.26 91.443 48.38 94.238 67.545 89.79 85.69c-4.36 17.38-14.7901 19.81-21.7001 3.23C56.9099 62.15 47.34-11.92 5.44995 3.12z" fill="#8cc63f"/></g></svg>
