<svg xmlns="http://www.w3.org/2000/svg" width="200" height="200" fill="none" viewBox="-11 -1 209 219"><g xmlns="http://www.w3.org/2000/svg"><path fill="#fbb03b" d="M101.56 201.22c-33.24 4.25-67.28-14-85.84-41.13C5 144.35-.09 125.88 0 106.88.08 89 4.59 63 18.08 49.82c20.53-20.07 23.61 26.94 25 38.24q3.47 27.38 7 54.75c3.67 28.48 17.41 63.09 51.48 58.41"/><path fill="#1b4964" d="M171.78 214.88c-28.68 9.92-62.86-4.67-77.54-30.69a71.77 71.77 0 0 1-5.62-56.11c5.76-17.56 16-10.66 21 2.34 10.38 26.65 21.2 99.58 62.16 84.46"/><path fill="#e6302b" d="M77.15 15.46c33.17-4.24 67.21 13.69 85.81 40.8 10.78 15.72 15.76 34.14 15.7 53.12-.06 17-4.68 47.25-19.37 58.58-20.67 15.94-22.57-30.53-23.94-41.26-2.33-18.26-4.61-36.52-7-54.77-3.7-28.36-17.79-61.06-51.2-56.47"/><path fill="#8cc63f" d="M5.45 3.12C33.54-6.59 66.94 7.22 82 32.26a71.86 71.86 0 0 1 7.79 53.43c-4.36 17.38-14.79 19.81-21.7 3.23C56.91 62.15 47.34-11.92 5.45 3.12"/></g></svg>
