<svg xmlns="http://www.w3.org/2000/svg" width="200" height="200" viewBox="0 0 1027 1024"><path fill="#c71f1e" d="M378.88 143.36c20.48-6.827 40.96-10.24 61.44-13.653 23.893 30.72 30.72 71.68 40.96 109.226 6.827 40.96 13.653 81.92 13.653 122.88 6.827 27.307 3.414 58.027 3.414 85.334s-3.414 51.2 0 78.506c0 37.547-3.414 71.68-3.414 109.227-6.826 23.893 0 47.787-6.826 71.68-10.24-3.413-13.654-13.653-17.067-20.48-40.96-61.44-78.507-122.88-112.64-187.733-34.133-68.267-68.267-136.534-71.68-215.04-6.827-61.44 34.133-119.467 92.16-139.947m211.627-10.24c6.826-3.413 10.24 0 17.066 0 27.307 6.827 58.027 10.24 81.92 27.307s44.374 40.96 51.2 68.266c10.24 34.134 6.827 71.68 0 105.814-10.24 44.373-30.72 85.333-51.2 126.293-6.826 13.653-13.653 23.893-20.48 37.547-10.24 23.893-27.306 47.786-40.96 71.68-23.893 40.96-47.786 75.093-71.68 116.053-3.413 3.413-6.826 13.653-13.653 6.827-3.413-40.96-6.827-81.92-10.24-126.294-6.827-54.613-3.413-105.813-3.413-160.426 3.413-34.134 3.413-71.68 6.826-105.814 6.827-40.96 13.654-85.333 27.307-126.293 13.653-10.24 13.653-30.72 27.307-40.96m-430.08 133.12c3.413 0 6.826 6.827 10.24 10.24C269.653 406.187 358.4 542.72 430.08 689.493c6.827 10.24 13.653 23.894 13.653 37.547-13.653-3.413-23.893-10.24-34.133-17.067-64.853-34.133-129.707-71.68-194.56-109.226-23.893-17.067-47.787-34.134-68.267-51.2-40.96-27.307-68.266-78.507-64.853-129.707 3.413-61.44 37.547-112.64 78.507-153.6m706.56 0h6.826c17.067 23.893 40.96 47.787 54.614 75.093 13.653 23.894 20.48 54.614 23.893 81.92 0 30.72-10.24 64.854-34.133 88.747-13.654 13.653-23.894 27.307-40.96 37.547-78.507 61.44-163.84 109.226-252.587 153.6-13.653 6.826-23.893 17.066-40.96 17.066 3.413-17.066 13.653-34.133 20.48-47.786C662.187 552.96 733.867 440.32 812.373 331.093c17.067-17.066 37.547-40.96 54.614-64.853M10.24 539.307c3.413-3.414 0-10.24 6.827-13.654 10.24 3.414 20.48 10.24 27.306 13.654 122.88 68.266 245.76 136.533 365.227 211.626 3.413 3.414 6.827 6.827 6.827 10.24h-235.52c-47.787 0-92.16-20.48-126.294-54.613C27.307 675.84 3.413 634.88 0 593.92c6.827-17.067 3.413-34.133 10.24-54.613m983.04-3.414c6.827-3.413 17.067-10.24 23.893-6.826 0 17.066 6.827 37.546 6.827 54.613-3.413 23.893-3.413 44.373-13.653 64.853-6.827 17.067-17.067 37.547-30.72 51.2-17.067 13.654-27.307 30.72-47.787 40.96-20.48 17.067-51.2 20.48-75.093 23.894h-245.76c3.413-3.414 3.413-6.827 6.826-10.24C740.693 675.84 866.987 604.16 993.28 535.893M184.32 798.72c44.373-3.413 88.747 0 133.12-6.827 30.72 0 64.853-3.413 95.573 0-6.826 13.654-23.893 20.48-34.133 27.307-34.133 23.893-68.267 44.373-105.813 61.44s-81.92 10.24-112.64-13.653c-23.894-17.067-44.374-44.374-58.027-68.267zm433.493-6.827c30.72-3.413 61.44 0 95.574 0 40.96 3.414 85.333 0 129.706 6.827 30.72 3.413 61.44 0 88.747 3.413-10.24 20.48-27.307 40.96-44.373 58.027-27.307 27.307-68.267 40.96-105.814 34.133-34.133-10.24-61.44-30.72-92.16-47.786-17.066-10.24-30.72-20.48-47.786-30.72-10.24-10.24-17.067-13.654-23.894-23.894"/></svg>
