<svg xmlns="http://www.w3.org/2000/svg" xmlns:xlink="http://www.w3.org/1999/xlink" viewBox="0 0 960 960" width="200" height="200">
<defs><style>.cls-1 {fill: none;}.cls-1, .cls-2 {stroke-width: 0px;}.cls-2 {fill: #003d8f;}.cls-3 {clip-path: url(#clippath);}</style><clipPath><rect class="cls-1" x="48.7" y="354.95" width="861.63" height="250.39"/></clipPath></defs><g class="cls-3"><g><path class="cls-2" d="M845.06,605.31c-4.26.01-8.51-.42-12.67-1.28-8.98-1.85-17.46-5.55-24.92-10.87-7.45-5.32-13.71-12.13-18.36-20l-.24-.44c-2.31-4.36-2.87-9.43-1.56-14.18,1.3-4.75,4.37-8.84,8.58-11.42,2.92-1.75,6.26-2.67,9.66-2.67,3.39,0,6.72.91,9.64,2.62,2.92,1.71,5.34,4.16,7,7.11l.64,1.08,2.03,2.74,2.71,2.74c3.53,3.04,7.79,5.1,12.37,5.98,3.7.71,7.51.65,11.19-.19,3.68-.84,7.14-2.43,10.16-4.68,3.12-2.21,5.71-5.09,7.58-8.43,1.87-3.34,2.97-7.04,3.23-10.86.31-3.77-.19-7.57-1.47-11.14-1.28-3.56-3.31-6.82-5.96-9.53,0,0-62.49-64.18-63.85-65.97l-3.08-4.56c-7.31-11.37-10.61-24.85-9.39-38.3.67-9.32,3.44-18.37,8.1-26.48l2.71-4.73c4.93-7.03,11.38-12.87,18.88-17.09l3.08-2.2c14.42-7.9,31.37-9.85,47.21-5.42,15.84,4.42,29.31,14.86,37.52,29.07,1.28,2.14,2.11,4.52,2.45,7,.34,2.47.17,4.99-.48,7.39-.65,2.45-1.79,4.75-3.34,6.75-1.55,2.01-3.49,3.68-5.71,4.93-2.82,1.67-6.04,2.54-9.32,2.53-3.37,0-6.68-.91-9.59-2.62-2.91-1.7-5.31-4.15-6.95-7.08-1.79-3.03-4.2-5.65-7.08-7.68-2.88-2.03-6.16-3.43-9.63-4.1-3.52-.68-7.15-.63-10.65.15-3.5.78-6.8,2.29-9.69,4.41-2.78,2.16-5.06,4.88-6.69,7.98-1.64,3.1-2.59,6.52-2.8,10.02-.29,3.51.16,7.05,1.33,10.38,1.17,3.33,3.03,6.38,5.45,8.94l58.73,60.36c8.86,9.16,14.81,20.72,17.12,33.23,2.31,12.51.87,25.43-4.13,37.13-5.01,11.7-13.36,21.68-24.02,28.68-10.66,7-23.15,10.72-35.91,10.7h.1Z"/><path class="cls-2" d="M659.27,605.27c-16.74-.02-32.79-6.65-44.62-18.45-11.84-11.8-18.49-27.79-18.51-44.48v-124.47c0-8.26,1.63-16.45,4.81-24.08,3.17-7.63,7.82-14.57,13.69-20.41,5.86-5.84,12.82-10.48,20.48-13.64,7.66-3.16,15.87-4.79,24.16-4.79s16.5,1.63,24.16,4.79c7.66,3.16,14.62,7.8,20.48,13.64,5.86,5.84,10.51,12.78,13.69,20.41,3.17,7.63,4.81,15.82,4.81,24.08v124.47c-.02,16.68-6.67,32.68-18.51,44.48-11.84,11.8-27.88,18.43-44.62,18.45ZM659.27,392.95c-6.63,0-12.99,2.64-17.67,7.31-4.69,4.67-7.33,11.01-7.34,17.62v124.47c-.04,3.28.59,6.54,1.83,9.58,1.24,3.04,3.08,5.8,5.41,8.13,2.33,2.32,5.1,4.16,8.15,5.4,3.05,1.24,6.32,1.86,9.61,1.82,6.63,0,12.99-2.64,17.68-7.31,4.69-4.67,7.33-11.01,7.34-17.62v-124.47c-.09-6.58-2.75-12.87-7.42-17.53-4.67-4.66-10.98-7.31-17.59-7.4Z"/><path class="cls-2" d="M414.06,483.33v103.12c0,5.03-2.01,9.86-5.58,13.42-3.57,3.56-8.42,5.56-13.47,5.56s-9.9-2-13.47-5.56c-3.57-3.56-5.58-8.39-5.58-13.42v-181.96l38.09,78.84ZM516.91,555.82v-181.89c-.21-4.9-2.31-9.53-5.86-12.93-3.55-3.39-8.28-5.29-13.2-5.29s-9.65,1.9-13.2,5.29c-3.55,3.39-5.65,8.03-5.86,12.93v103.02l38.12,78.87ZM412.26,365.72v-.37c-1.72-3.06-4.22-5.61-7.25-7.39-3.03-1.78-6.48-2.73-10-2.74-1.29,0-2.57.13-3.83.41-4.28.83-8.14,3.14-10.89,6.52-2.75,3.38-4.22,7.61-4.16,11.96v4.36l104.58,216.41c1.64,3.08,4.07,5.67,7.05,7.5,2.98,1.83,6.39,2.83,9.89,2.91,1.47,0,2.94-.18,4.37-.54,4.21-.88,7.99-3.17,10.7-6.5,2.71-3.33,4.19-7.48,4.18-11.77v-4.29s-101.84-210.67-104.65-216.44Z"/><path class="cls-2" d="M233.06,605.27c-16.74,0-32.79-6.64-44.63-18.44-11.84-11.8-18.49-27.8-18.5-44.49v-124.47c0-16.69,6.65-32.69,18.49-44.5,11.84-11.8,27.9-18.43,44.64-18.43s32.8,6.63,44.64,18.43c11.84,11.8,18.49,27.81,18.49,44.5v124.47c0,16.69-6.66,32.69-18.5,44.49-11.84,11.8-27.89,18.43-44.63,18.44ZM233.06,392.95c-3.29,0-6.54.64-9.58,1.89-3.04,1.25-5.79,3.09-8.12,5.4-2.32,2.32-4.17,5.07-5.42,8.09-1.26,3.03-1.9,6.27-1.89,9.54v124.47c0,6.61,2.64,12.95,7.32,17.63,4.69,4.67,11.05,7.3,17.68,7.3s13-2.63,17.69-7.3c4.69-4.67,7.32-11.02,7.32-17.63v-124.47c-.09-6.58-2.75-12.87-7.42-17.53-4.67-4.66-10.98-7.31-17.59-7.4Z"/><path class="cls-2" d="M69.41,605.18c-2.74.01-5.46-.52-8-1.57-2.53-1.05-4.83-2.59-6.76-4.53-1.93-1.94-3.45-4.25-4.47-6.79-1.02-2.54-1.52-5.25-1.48-7.99v-208.98c.1-5.43,2.34-10.61,6.24-14.4,3.9-3.79,9.15-5.9,14.6-5.87,4.56-.07,9.02,1.4,12.65,4.16,3.63,2.76,6.22,6.66,7.35,11.07.14.48.25.96.34,1.45v.91c.19,1.12.28,2.25.27,3.38v208.4c.02,2.72-.51,5.42-1.54,7.94-1.04,2.52-2.56,4.81-4.49,6.74-1.93,1.93-4.22,3.46-6.75,4.5-2.52,1.04-5.23,1.57-7.96,1.56Z"/></g></g></svg>
