<svg xmlns="http://www.w3.org/2000/svg" width="200" height="200" viewBox="0 0 960 960"><path fill="#003d8f" d="M845.06 605.31c-4.26.01-8.51-.42-12.67-1.28a65.75 65.75 0 0 1-24.92-10.87 65.6 65.6 0 0 1-18.36-20l-.24-.44a19.3 19.3 0 0 1-1.56-14.18c1.3-4.75 4.37-8.84 8.58-11.42 2.92-1.75 6.26-2.67 9.66-2.67 3.39 0 6.72.91 9.64 2.62s5.34 4.16 7 7.11l.64 1.08 2.03 2.74 2.71 2.74c3.53 3.04 7.79 5.1 12.37 5.98 3.7.71 7.51.65 11.19-.19s7.14-2.43 10.16-4.68a25.79 25.79 0 0 0 10.81-19.29c.31-3.77-.19-7.57-1.47-11.14a26.4 26.4 0 0 0-5.96-9.53s-62.49-64.18-63.85-65.97l-3.08-4.56a60.7 60.7 0 0 1-9.39-38.3c.67-9.32 3.44-18.37 8.1-26.48l2.71-4.73a57.5 57.5 0 0 1 18.88-17.09l3.08-2.2a62.97 62.97 0 0 1 47.21-5.42 62.83 62.83 0 0 1 37.52 29.07 18.5 18.5 0 0 1 2.45 7c.34 2.47.17 4.99-.48 7.39-.65 2.45-1.79 4.75-3.34 6.75a18.9 18.9 0 0 1-5.71 4.93 18.2 18.2 0 0 1-9.32 2.53c-3.37 0-6.68-.91-9.59-2.62a18.9 18.9 0 0 1-6.95-7.08 24.86 24.86 0 0 0-16.71-11.78c-3.52-.68-7.15-.63-10.65.15s-6.8 2.29-9.69 4.41a24.6 24.6 0 0 0-6.69 7.98c-1.64 3.1-2.59 6.52-2.8 10.02a25.1 25.1 0 0 0 6.78 19.32l58.73 60.36a64.635 64.635 0 0 1 12.99 70.36 64.85 64.85 0 0 1-24.02 28.68 65.25 65.25 0 0 1-35.91 10.7h.1Zm-185.79-.04c-16.74-.02-32.79-6.65-44.62-18.45a62.88 62.88 0 0 1-18.51-44.48V417.87c0-8.26 1.63-16.45 4.81-24.08a62.8 62.8 0 0 1 13.69-20.41 63.1 63.1 0 0 1 20.48-13.64c7.66-3.16 15.87-4.79 24.16-4.79s16.5 1.63 24.16 4.79 14.62 7.8 20.48 13.64a63.1 63.1 0 0 1 13.69 20.41 62.8 62.8 0 0 1 4.81 24.08v124.47a62.9 62.9 0 0 1-18.51 44.48 63.3 63.3 0 0 1-44.62 18.45Zm0-212.32c-6.63 0-12.99 2.64-17.67 7.31a24.92 24.92 0 0 0-7.34 17.62v124.47c-.04 3.28.59 6.54 1.83 9.58a24.68 24.68 0 0 0 13.56 13.53 24.7 24.7 0 0 0 9.61 1.82c6.63 0 12.99-2.64 17.68-7.31a24.92 24.92 0 0 0 7.34-17.62V417.88a25.25 25.25 0 0 0-7.42-17.53 25.38 25.38 0 0 0-17.59-7.4m-245.21 90.38v103.12c0 5.03-2.01 9.86-5.58 13.42s-8.42 5.56-13.47 5.56-9.9-2-13.47-5.56a18.96 18.96 0 0 1-5.58-13.42V404.49l38.09 78.84Zm102.85 72.49V373.93c-.21-4.9-2.31-9.53-5.86-12.93-3.55-3.39-8.28-5.29-13.2-5.29s-9.65 1.9-13.2 5.29a19 19 0 0 0-5.86 12.93v103.02zm-104.65-190.1v-.37a19.85 19.85 0 0 0-7.25-7.39 19.86 19.86 0 0 0-10-2.74c-1.29 0-2.57.13-3.83.41-4.28.83-8.14 3.14-10.89 6.52a18.54 18.54 0 0 0-4.16 11.96v4.36l104.58 216.41c1.64 3.08 4.07 5.67 7.05 7.5s6.39 2.83 9.89 2.91c1.47 0 2.94-.18 4.37-.54 4.21-.88 7.99-3.17 10.7-6.5a18.57 18.57 0 0 0 4.18-11.77v-4.29S415.06 371.52 412.25 365.75Zm-179.2 239.55c-16.74 0-32.79-6.64-44.63-18.44a62.86 62.86 0 0 1-18.5-44.49V417.87c0-16.69 6.65-32.69 18.49-44.5 11.84-11.8 27.9-18.43 44.64-18.43s32.8 6.63 44.64 18.43a62.83 62.83 0 0 1 18.49 44.5v124.47c0 16.69-6.66 32.69-18.5 44.49a63.27 63.27 0 0 1-44.63 18.44m0-212.32c-3.29 0-6.54.64-9.58 1.89a25.1 25.1 0 0 0-8.12 5.4 25 25 0 0 0-5.42 8.09c-1.26 3.03-1.9 6.27-1.89 9.54v124.47c0 6.61 2.64 12.95 7.32 17.63 4.69 4.67 11.05 7.3 17.68 7.3s13-2.63 17.69-7.3a24.88 24.88 0 0 0 7.32-17.63V417.87a25.25 25.25 0 0 0-7.42-17.53 25.38 25.38 0 0 0-17.59-7.4ZM69.41 605.18c-2.74.01-5.46-.52-8-1.57a20.8 20.8 0 0 1-6.76-4.53 20.4 20.4 0 0 1-4.47-6.79 20.6 20.6 0 0 1-1.48-7.99V375.32c.1-5.43 2.34-10.61 6.24-14.4s9.15-5.9 14.6-5.87c4.56-.07 9.02 1.4 12.65 4.16a20.2 20.2 0 0 1 7.35 11.07c.14.48.25.96.34 1.45v.91c.19 1.12.28 2.25.27 3.38v208.4a20.6 20.6 0 0 1-1.54 7.94 20.64 20.64 0 0 1-11.24 11.24 20.7 20.7 0 0 1-7.96 1.56Z" /></svg>
