<svg xmlns="http://www.w3.org/2000/svg" width="200" height="200" viewBox="210 360 1621 304"><path fill="#e1251b" d="M1669.094 432.488c15.512 21.695 27.118 51.146 25.817 112.868-17.465 193.79-181.966 316.15-345.763 316.15-177.247 0-302.047-127.567-377.112-270.103-17.735-33.681-30.59-71.267-42.685-103.81-23.701 32.217-73.654 84.773-99.091 109.234a629 629 0 0 0 59.986 123.987C910.26 752 960.755 822.563 1032.945 878.427c65.627 50.604 128.596 81.681 199.81 99.417a487.8 487.8 0 0 0 354.657-50.007c128.814-73.817 219.607-209.79 236.041-350.97-31.729-52.61-100.502-114.765-154.36-144.379M585.379 381.125a238.97 238.97 0 0 1 126.97 36.394c30.535-32.543 57.545-66.17 85.586-100.068a370.55 370.55 0 0 0-583.268 303.566 373 373 0 0 0 4.393 57.003c10.36 12.8 114.712 4.122 130.983-10.522a242.5 242.5 0 0 1-4.556-46.481A239.89 239.89 0 0 1 585.38 381.125m0 610.875a370.66 370.66 0 0 1-320.977-185.383c4.99-6.617 121.6-19.58 149.424-18.007a239.08 239.08 0 0 0 171.553 72.298s147.525 11.336 285.396-97.627c0 0 51.851 73.872 91.661 101.641 0 0-130.007 127.078-377.057 127.078"/><path fill="#e1251b" d="M1545.053 74.305c-175.132-73.6-345.98-52.122-514.82 71.973-148.882 109.397-208.109 219.607-303.35 314.197-113.897 113.139-199.32 151.213-267.063 176.813-69.966 26.468-167.593 44.529-240.759 40.515A371.4 371.4 0 0 0 264.402 806.4c186.794-3.2 318.482-74.685 403.417-126.481 74.251-45.288 185.98-159.35 244.61-233.22 94.21-118.563 216.95-231.974 329.167-267.553 156.745-49.627 309.152 19.796 383.023 117.857 6.617 8.624 145.14 58.36 188.692 95.783-16-67.905-91.499-244.176-268.258-318.48"/><path fill="#e1251b" d="M1809.243 377.817a497.36 497.36 0 0 0-282.847-90.902c-122.631 0-245.424 47.783-331.824 132.882-62.861 61.83-93.451 112-163.146 195.58a570.4 570.4 0 0 0 92.637 108.474c9.004-13.126 59.661-84.827 97.627-135.214 48.814-64.108 98.387-115.362 173.56-145.03a350.05 350.05 0 0 1 427.498 139.335 486 486 0 0 0-13.505-205.125"/></svg>
