<svg xmlns="http://www.w3.org/2000/svg" width="200" height="200" viewBox="0 0 1024 1024"><path fill="#e6002d" d="M718.54 453.837c-4.198 0-8.396-.717-12.594-.717a103.83 103.83 0 0 0-67.892 25.088 139.7 139.7 0 0 0 13.62-60.314 133 133 0 0 0-2.458-25.702 139.571 139.571 0 0 0-274.432 0 133 133 0 0 0-2.458 25.702 139.7 139.7 0 0 0 13.62 60.314 103.83 103.83 0 0 0-67.892-25.088c-4.198 0-8.396 0-12.595.717a104.55 104.55 0 1 0 101.069 159.437 117 117 0 0 0 6.144-11.06 105.17 105.17 0 0 0 4.915-76.697 62.67 62.67 0 0 1 27.341 20.48l2.662 3.891a83.25 83.25 0 0 1 133.94-3.38l4.71 6.862 51.2 73.932a84.07 84.07 0 0 0 62.464 34.612h5.53a104.55 104.55 0 0 0 12.595-208.384z"/><path fill="#e6002d" d="M512 0a512 512 0 1 0 512 512A512 512 0 0 0 512 0m200.806 732.365h-6.86a152.47 152.47 0 0 1-120.525-58.983S509.235 564.634 508.006 563.2a42.19 42.19 0 0 0-32.46-15.258 40.96 40.96 0 0 0-24.064 7.578l122.88 175.411a62.566 62.566 0 0 0 77.004 20.48 97.6 97.6 0 0 1-57.446 32.154 97.08 97.08 0 0 1-95.54-39.117l-49.458-70.656a174.9 174.9 0 1 1-143.36-290.509 209.715 209.715 0 0 1 413.9 0 174.797 174.797 0 0 1-6.144 349.082z"/></svg>
