<svg xmlns="http://www.w3.org/2000/svg" width="200" height="200" viewBox="0 0 1055 1024"><path fill="#326ce5" d="m448.633 615.302.297.429-43.926 106.089a228.57 228.57 0 0 1-90.722-112.624l-.495-1.583 113.345-19.226.165.23a19.33 19.33 0 0 1 22.886 19.033 19 19 0 0 1-1.616 7.75l.033-.132zm-36.61-93.591a19.375 19.375 0 0 0 7.651-33.242l-.033-.033.103-.495-86.237-77.135a223.74 223.74 0 0 0-33.473 118.358 230 230 0 0 0 1.451 25.789l-.103-1.022 110.547-31.89zm50.324-87.061a19.34 19.34 0 0 0 30.736-14.775v-.033l.428-.23 6.596-115.192a226 226 0 0 0-132.373 63.449l.032-.033 94.416 66.977zm33.44 120.897 31.79 15.334 31.759-15.268 7.915-34.298-21.997-27.405h-35.348l-21.997 27.405zm65.956-136.067a19.347 19.347 0 0 0 30.835 14.737l-.066.033.363.132 93.822-66.516a227.42 227.42 0 0 0-130.428-63.285l-1.121-.131 6.492 114.993zm478.216 262.503L786.13 997.749a70.27 70.27 0 0 1-54.71 26.119h-.165l-407.211.132h-.066a70.18 70.18 0 0 1-54.677-26.086l-.103-.132-253.96-315.7A69.62 69.62 0 0 1 1.85 622.688l-.103.462L92.34 229.395a69.56 69.56 0 0 1 37.958-47.19L497.11 6.892a70.7 70.7 0 0 1 61.306.198l-.43-.198 366.95 175.211a69.63 69.63 0 0 1 37.958 47.192l90.656 393.756a69.25 69.25 0 0 1-13.554 58.931zm-144.607-90.458c-1.847-.429-4.518-1.154-6.365-1.484-7.65-1.451-13.85-1.089-21.073-1.682-15.4-1.616-28.064-2.935-39.343-6.493-4.617-1.752-7.915-7.255-9.498-9.497l-8.838-2.606a276 276 0 0 0 2.671-38.716 284.4 284.4 0 0 0-7.65-65.758l.395 1.913a284.8 284.8 0 0 0-41.783-96.097l.626.989c2.276-2.078 6.596-5.837 7.783-6.991.363-3.958.033-8.047 4.122-12.4 8.674-8.142 19.524-14.873 32.682-22.953 6.233-3.694 12.004-6.035 18.24-10.652 1.419-1.055 3.332-2.737 4.845-3.924 10.553-8.41 12.96-22.854 5.408-32.352s-22.26-10.388-32.747-1.979c-1.484 1.188-3.529 2.737-4.881 3.859-5.903 5.111-9.53 10.124-14.51 15.4-10.822 10.982-19.787 20.15-29.578 26.779-4.254 2.473-10.52 1.616-13.323 1.45l-8.348 5.937a287.2 287.2 0 0 0-181.147-87.985l-1.154-.103-.528-9.79c-2.869-2.737-6.299-5.05-7.156-10.982-.956-11.773.66-24.503 2.506-39.805 1.023-7.156 2.672-13.088 3.001-20.875.033-1.752-.033-4.353-.033-6.233 0-13.455-9.86-24.404-21.996-24.404-12.103 0-21.93 10.95-21.93 24.404l.032.627c0 1.814-.103 4.056 0 5.639.264 7.783 1.946 13.719 2.935 20.875 1.847 15.302 3.43 27.999 2.474 39.838a24.07 24.07 0 0 1-7.09 11.311l-.034.033-.527 9.267a282.44 282.44 0 0 0-183.06 87.92l-.132.131a349 349 0 0 1-8.937-6.332l1.022.722c-3.957.527-7.915 1.752-13.06-1.286-9.79-6.596-18.764-15.731-29.577-26.746-4.98-5.276-8.574-10.289-14.477-15.335-1.32-1.154-3.4-2.737-4.88-3.858a25.94 25.94 0 0 0-15.237-5.804h-.066c-.33-.033-.721-.033-1.12-.033a21.13 21.13 0 0 0-16.358 7.717l-.033.033c-7.552 9.497-5.145 24.012 5.408 32.417l.297.231 4.584 3.66c6.233 4.618 11.971 6.992 18.204 10.653 13.158 8.141 24.012 14.873 32.682 22.952 3.33 3.595 3.957 9.927 4.386 12.664l7.024 6.299a281.6 281.6 0 0 0-47.751 157.667 285 285 0 0 0 3.1 42.047l-.198-1.546-9.135 2.638c-2.408 3.166-5.837 8.08-9.465 9.53-11.312 3.563-24.012 4.845-39.343 6.465-7.222.626-13.422.263-21.106 1.715-1.616.296-3.957.89-5.837 1.319l-.165.103-.297.103c-12.96 3.133-21.27 15.038-18.6 26.745 2.672 11.74 15.335 18.86 28.362 16.06l.296-.033.43-.131 5.667-1.287c7.486-2.011 12.928-4.98 19.684-7.552 14.51-5.177 26.548-9.53 38.255-11.245 4.914-.396 10.124 3.034 12.663 4.452l9.531-1.616c22.299 67.522 67.115 122.533 125.354 157.387l1.287.722-3.958 9.596c1.451 3.694 3.034 8.74 1.946 12.4-4.255 11.085-11.572 22.73-19.886 35.755-3.99 5.969-8.141 10.652-11.773 17.544-.89 1.616-1.979 4.188-2.803 5.903-5.64 12.103-1.484 25.987 9.366 31.227 10.915 5.276 24.436-.297 30.34-12.4v-.103c.89-1.715 2.011-3.958 2.737-5.574 3.067-7.123 4.122-13.224 6.331-20.15 5.805-14.609 9.004-29.91 17.017-39.441 2.21-2.638 5.705-3.595 9.465-4.617l4.98-9.003c30.274 12.004 65.328 18.962 102.033 18.962a283 283 0 0 0 102.561-19.094l-1.945.66 4.65 8.442c3.792 1.22 7.914 1.847 11.245 6.826 5.97 10.19 10.059 22.294 15.038 36.936 2.21 6.86 3.265 12.96 6.365 20.084.693 1.616 1.88 3.957 2.737 5.668 5.837 12.136 19.424 17.676 30.34 12.4 10.85-5.178 15.005-19.128 9.366-31.227-.89-1.714-1.979-4.225-2.87-5.903-3.66-6.86-7.782-11.476-11.772-17.511-8.348-13.027-15.203-23.777-19.49-34.858-1.752-5.705.296-9.234 1.681-12.928-.791-.956-2.605-6.331-3.66-8.87 59.722-35.848 104.573-91.283 126.075-157.239l.56-2.011c2.803.428 7.75 1.319 9.366 1.681 3.298-2.21 6.332-5.012 12.3-4.583 11.708 1.714 23.745 6.068 38.256 11.245 6.76 2.638 12.169 5.64 19.683 7.618 1.583.429 3.859.825 5.706 1.22l.395.132.297.033c13.06 2.803 25.69-4.32 28.361-16.06 2.639-11.708-5.639-23.613-18.6-26.746zm-174.256-180.62-85.743 76.778v.23a19.346 19.346 0 0 0 7.486 33.242l.132.033.132.43 111.07 32.015a222 222 0 0 0 1.087-22.293 229.2 229.2 0 0 0-6.134-52.896l.297 1.545a228.8 228.8 0 0 0-28.889-70.078l.561.956zM544.632 645.05a19.24 19.24 0 0 0-16.984-10.223 7 7 0 0 0-.825.033h.033a19.28 19.28 0 0 0-16.29 10.157l-.067.104h-.103L454.631 745.9a222.3 222.3 0 0 0 73.31 12.169 227.5 227.5 0 0 0 74.531-12.506l-1.583.495-55.83-100.946zm83.005-56.853a19.4 19.4 0 0 0-3.496-.33 19.2 19.2 0 0 0-8.475 1.946l.103-.066a19.33 19.33 0 0 0-9.366 25.261l-.033-.132-.132.165 44.418 107.211a227.54 227.54 0 0 0 90.985-113.41l.495-1.584-114.334-19.36z"/></svg>
