<svg xmlns="http://www.w3.org/2000/svg" width="200" height="200" fill="none" viewBox="-4.82 9.6 156.78 14.8"><g><path fill="#1e1e42" d="M7.158.605v26.35h7.355l3.549 6.299H0V.604z" style="mix-blend-mode:passthrough"/><path fill="#6a4dfd" d="M137.092.605v26.35h7.356l3.548 6.299h-18.061V.604z" style="mix-blend-mode:passthrough"/><rect width="6.64" height="18.858" x="21.337" y="14.505" fill="#1e1e42" rx="0" style="mix-blend-mode:passthrough"/><path fill="#1e1e42" d="M33.118 11.734V5.566h6.946v6.168h4.814v5.697h-4.814v8.478q-.001 1.162.208 1.764.21.602.766.822.554.222 1.622.221.694 0 1.179-.04a6 6 0 0 0 .855-.12v4.926q-1.944.2-3.61.2c-2.127 0-3.72-.189-4.766-.562q-1.575-.56-2.384-1.941-.809-1.38-.809-3.944V16.623m35.542 15.414q-1.532 1.006-3.567 1.485-2.032.48-3.93.482-6.443 0-9.767-3.318-3.322-3.32-3.322-9.3c0-3.988.989-6.994 2.962-9.105q2.961-3.166 8.079-3.165c3.411 0 6.061 1.054 8.035 3.165q2.96 3.166 2.962 9.105-.002.658-.079 1.876H54.369q.887 5.632 6.81 5.631 4.147.001 7.491-2.665v5.81zM64.033 18.37q-.524-2.183-1.812-3.23-1.29-1.049-3.103-1.047-1.693.002-2.88 1.09-1.186 1.091-1.671 3.187z" style="mix-blend-mode:passthrough"/><path fill="#6a4dfd" d="M85.039 33.862q-6.25 0-11.113-2.705v-6.856c1.697 1.058 3.567 1.945 5.601 2.659q3.058 1.074 5.555 1.072 2.037.001 3.218-1.025 1.18-1.026 1.179-2.333-.001-1.82-1.388-3.335-1.392-1.515-4.444-2.448-3.518-1.12-5.486-2.264-1.968-1.14-2.962-2.868-.997-1.724-.996-4.386-.001-2.519 1.204-4.592 1.205-2.076 3.542-3.336c1.556-.84 3.419-1.307 5.58-1.398A14 14 0 0 1 85.825 0q2.406 0 4.84.489 2.43.49 4.098 1.235v6.015q-1.808-.792-4.214-1.307c-1.607-.34-3.027-.514-4.26-.514q-2.364 0-3.61.84-1.25.84-1.25 2.332-.001 1.352 1.34 2.427c.895.717 2.283 1.398 4.167 2.053q3.38.978 5.508 2.217 2.13 1.236 3.332 3.22 1.204 1.98 1.205 4.968c0 1.992-.432 3.575-1.298 5.038q-1.294 2.193-3.635 3.43-2.339 1.234-5.44 1.376c-.34.029-.862.047-1.574.047zm27.858 0q-6.249 0-11.112-2.705v-6.856q2.547 1.587 5.601 2.659 3.058 1.074 5.555 1.072 2.037.001 3.217-1.025t1.18-2.333q-.001-1.82-1.388-3.335-1.393-1.515-4.444-2.448-3.52-1.12-5.486-2.264-1.968-1.14-2.962-2.868-.998-1.724-.996-4.386-.002-2.519 1.204-4.592 1.202-2.076 3.541-3.336c1.557-.84 3.42-1.307 5.58-1.398A14 14 0 0 1 113.685 0q2.405 0 4.839.489 2.431.49 4.098 1.235v6.015q-1.807-.792-4.213-1.307c-1.604-.34-3.024-.514-4.26-.514q-2.364 0-3.61.84-1.251.84-1.251 2.332-.002 1.352 1.344 2.427c.896.717 2.283 1.398 4.167 2.053q3.38.978 5.512 2.217 2.13 1.236 3.332 3.22 1.204 1.98 1.205 4.968c0 1.992-.432 3.575-1.298 5.038-.863 1.463-2.078 2.604-3.635 3.43q-2.339 1.234-5.44 1.376-.508.045-1.574.047z" style="mix-blend-mode:passthrough"/><rect width="6.64" height="5.997" x="21.276" y="5.429" fill="#1e1e42" rx="0" style="mix-blend-mode:passthrough"/></g></svg>
