<svg xmlns="http://www.w3.org/2000/svg" width="200" height="200" viewBox="0 0 1024 1024"><path fill="#0072c6" d="M515.466.012C300.718-1.428 99.826 133.354 27.188 347.877-63.467 615.65 80.086 906.203 347.853 996.825c267.771 90.654 558.326-52.899 648.947-320.666 73.699-217.594-7.327-450.2-183.932-578.421l5.376 108.67c88.098 97.375 122.878 235.164 79.007 364.76-65.44 193.374-281.339 295.036-482.134 227.037C214.255 730.239 104.498 518.37 170 324.966c44-129.95 155.934-218.494 285.593-241.916L525.642.268A212 212 0 0 0 516.2.044h-.8zM665.996 46.7h-.352a12.2 12.2 0 0 0-4.96 1.056l.064-.032-.16.032a14.1 14.1 0 0 0-4.64 3.04c-6.176 6.048-28.031 35.327-28.031 35.327l-47.619 58.975-55.454 67.614-95.232 118.43s-43.679 54.526-34.047 121.63c9.632 67.166 59.55 99.838 98.297 112.99 38.687 13.087 98.207 17.407 146.686-30.047 48.42-47.456 46.847-117.342 46.847-117.342l-3.711-151.901-2.976-87.455-2.012-75.742s.416-36.511-.864-45.087a13.9 13.9 0 0 0-1.536-4.64l.032.064-.256-.512-.288-.48a11.88 11.88 0 0 0-9.76-5.984h-.028z"/></svg>
