<svg xmlns="http://www.w3.org/2000/svg" width="200" height="200" viewBox="0 0 180 180"><path fill="#282828" d="M90.1 0C139.8 0 180 40.2 180 89.9s-40.2 89.9-89.9 89.9-90-40.1-90-89.9C.1 40.3 40.4 0 90.1 0"/><path fill="#fff" d="M39.1 121.1V59.7l18-4.3-2.8 19.8h1.9c1.1-4.6 2.9-8.5 5.2-11.6 2.5-3.2 5.5-5.6 9.2-7.2 3.8-1.7 8.2-2.6 13.2-2.6 6.5 0 12.1 1.4 16.8 4.4 4.7 2.9 8.3 7 10.8 12.6q3.9 8.1 3.9 19.5v30.8H97.6V94.8c0-5.1-.8-9.4-2.3-13-1.6-3.6-3.9-6.3-6.9-8.2-3.1-1.9-6.6-2.9-10.9-2.9-6.3 0-11.3 2-14.9 6.2-3.6 4.1-5.3 10-5.3 17.7V121H39.1z"/><circle cx="137.3" cy="110.4" r="12.4" fill="#6eda78"/></svg>
