<svg xmlns="http://www.w3.org/2000/svg" width="200" height="200" viewBox="0 0 390 390"><path fill="#231f20" stroke="#231f20" d="M51.963 131.224c-.077.579-.118 112.462-.042 116.026L52 251h23.132l-.316-44.001c-.174-24.2-.074-44 .223-44 .296.001 2.273 4.389 4.393 9.751 3.967 10.038 10.957 24.373 28.401 58.25l10.041 19.5 15.063.276 15.063.276V130.937l-11.75.281-11.75.282v84l-3.75-7.875c-2.062-4.331-3.75-8.029-3.75-8.218 0-.888-27.165-54.292-33.016-64.907l-1.653-3-15.166-.276c-8.341-.152-15.182-.152-15.202 0m146.037.807c-11.778 2.475-22.924 10.888-27.645 20.868-3.543 7.488-3.702 19.258-.356 26.376 3.109 6.613 12.378 14.831 21.73 19.265 23.156 10.978 26.261 12.659 28.674 15.527 4.98 5.919 2.551 14.383-5.039 17.554-9.455 3.951-26.027-.858-36.881-10.702-1.988-1.804-2.109-1.695-8.5 7.606-3.566 5.189-6.483 10.225-6.483 11.191 0 3.605 14.819 11.258 25.853 13.351 6.554 1.243 20.919 1.184 27.942-.114 16.496-3.049 29.08-14.932 31.268-29.528 1.437-9.576-2.904-20.798-10.893-28.161-4.905-4.521-7.783-6.161-24.267-13.821-12.61-5.86-16.992-8.776-19-12.643-2.245-4.321-1.705-7.5 1.952-11.49 3.029-3.305 3.956-3.705 9.535-4.108 7.465-.54 13.628 1.508 19.904 6.616 2.399 1.953 4.634 3.095 5.065 2.588.424-.498 3.442-4.056 6.706-7.906s6.273-7.15 6.685-7.333c4.233-1.882-6.673-10.182-18.131-13.8-5.761-1.818-22.121-2.596-28.119-1.336m74 6.587c-13.821 9.504-13.103 7.911-8.09 17.932 2.363 4.726 4.861 8.809 5.55 9.073s3.905-1.285 7.146-3.444l5.894-3.925.26 46.373.26 46.373H307V132l-12.75.043-12.75.043-9.5 6.532"/><path fill="#f30270" stroke="#f30270" d="M325.071 225.703c-9.907 5.191-10.467 17.785-1.071 24.115 10.022 6.753 23.264-3.698 20.007-15.791-2.063-7.663-11.924-11.997-18.936-8.324"/></svg>
