<svg xmlns="http://www.w3.org/2000/svg" width="200" height="200" viewBox="0 0 393.815 203.828"><defs><clipPath clipPathUnits="userSpaceOnUse"><path d="M0 841.89h595.276V0H0Z"/></clipPath></defs><g transform="matrix(1.33333 0 0 -1.33333 -200.852 661.492)"><g><g><path d="M215.481 375.647c-17.881 0-32.981 15.534-32.981 33.909 0 18.451 14.796 33.446 32.981 33.446 18.184 0 32.983-14.995 32.983-33.446 0-18.375-15.107-33.909-32.983-33.909m0 98.596c-35.744 0-64.842-29.225-64.842-65.155 0-35.648 29.098-64.695 64.842-64.695 35.761 0 64.841 29.047 64.841 64.695 0 35.93-29.08 65.155-64.841 65.155" style="fill:#e31e30;fill-opacity:1;fill-rule:nonzero;stroke:none"/><path d="M381.963 394.02c-5.57-10.809-16.703-18.373-29.172-18.373-17.881 0-32.978 15.534-32.978 33.909 0 18.451 14.791 33.446 32.978 33.446 12.811 0 23.949-7.449 29.409-18.312l24.929 19.931c-11.584 17.825-31.613 29.622-54.338 29.622-35.744 0-64.843-29.225-64.843-65.155 0-35.648 29.099-64.695 64.843-64.695 22.783 0 42.849 11.786 54.408 29.558z" style="fill:#e31e30;fill-opacity:1;fill-rule:nonzero;stroke:none"/><path d="M413.976 368.717v70.226L446 464.499V343.248Z" style="fill:#e31e30;fill-opacity:1;fill-rule:nonzero;stroke:none"/><path d="M413.976 471.035v-21.054L446 475.658v20.461z" style="fill:#e31e30;fill-opacity:1;fill-rule:nonzero;stroke:none"/></g></g></g><script/></svg>
