<svg xmlns="http://www.w3.org/2000/svg" width="200" height="200" viewBox="0 0 1024 1024"><path fill="#e57000" d="M93.867 234.667c-34.134 12.8-51.2 25.6-51.2 34.133 0 4.267 51.2 64 115.2 136.533 64 68.267 115.2 128 115.2 128s-51.2 59.734-115.2 128-115.2 132.267-115.2 136.534c4.266 17.066 59.733 42.666 98.133 42.666 64 0 81.067-12.8 217.6-162.133 68.267-76.8 128-140.8 128-140.8 0-4.267-55.467-64-123.733-140.8-85.334-102.4-132.267-145.067-153.6-157.867-29.867-12.8-81.067-17.066-115.2-4.266m725.333 4.266c-21.333 8.534-68.267 59.734-153.6 153.6-68.267 76.8-123.733 140.8-123.733 140.8 0 4.267 55.466 68.267 128 140.8 136.533 153.6 153.6 162.134 217.6 162.134 42.666 0 98.133-21.334 98.133-42.667 0-4.267-51.2-68.267-115.2-136.533s-115.2-128-115.2-128 51.2-59.734 115.2-128 115.2-128 115.2-136.534c-4.267-17.066-55.467-38.4-98.133-38.4-34.134 0-46.934 4.267-68.267 12.8"/><path d="M238.933 136.533c-42.666 21.334-42.666 25.6-4.266 68.267C456.533 448 507.733 507.733 512 507.733s311.467-332.8 315.733-341.333c0-4.267-8.533-12.8-21.333-21.333-17.067-12.8-34.133-17.067-68.267-17.067-64-4.267-85.333 8.533-162.133 93.867-34.133 38.4-64 72.533-64 72.533s-29.867-29.867-64-68.267-72.533-76.8-89.6-85.333c-25.6-17.067-89.6-21.333-119.467-4.267m115.2 588.8C268.8 819.2 200.533 896 200.533 900.267s8.534 12.8 21.334 21.333c17.066 12.8 34.133 17.067 68.266 17.067 59.734 4.266 85.334-8.534 162.134-98.134 34.133-38.4 64-68.266 64-68.266s29.866 29.866 64 68.266c81.066 89.6 98.133 102.4 162.133 98.134 34.133 0 51.2-4.267 68.267-17.067 12.8-8.533 21.333-17.067 21.333-21.333-4.267-8.534-311.467-345.6-315.733-341.334-8.534 0-76.8 76.8-162.134 166.4"/></svg>
