<svg xmlns="http://www.w3.org/2000/svg" width="200" height="200" viewBox="0 0 1024 1024"><path fill="#fefefe" d="m256.073-.26 6.9-.012c6.28-.01 12.559-.008 18.838-.004 6.09.002 12.18-.005 18.269-.012 13.982-.015 27.965-.017 41.947-.014a57148 57148 0 0 0 44.106-.01 112930 112930 0 0 1 87.793-.003q38.935.007 77.87-.021a103326 103326 0 0 1 96.966-.027h2.327q17.33.001 34.66-.015 19.727-.019 39.455-.002c6.703.006 13.405.008 20.108-.005q9.225-.015 18.45.007 3.315.004 6.631-.008c18.91-.064 37.659 1.401 56.044 6.073l3.1.77C861.864 14.728 892.055 28.248 919 48l1.752 1.277c7.25 5.318 13.98 11.043 20.53 17.192a197 197 0 0 0 7.03 6.218c3.263 2.833 6.079 5.886 8.864 9.184a118 118 0 0 0 3.804 4.227C973.285 99.164 983.102 114.475 992 130l1.3 2.268c13.036 23.04 21.71 48.268 27.012 74.17l.447 2.178c3.006 15.814 3.532 31.404 3.502 47.457l.011 6.9c.01 6.28.008 12.559.004 18.838-.002 6.09.005 12.18.012 18.269q.02 20.973.014 41.947a57148 57148 0 0 0 .01 44.106q.013 32.667.008 65.334v2.485l-.003 12.467v2.5l-.002 5.007q-.007 38.935.021 77.87a103326 103326 0 0 1 .027 96.966v2.327q-.002 17.33.015 34.66.019 19.727.002 39.455c-.006 6.703-.008 13.405.005 20.108q.015 9.225-.007 18.45-.004 3.315.008 6.631c.064 18.91-1.401 37.659-6.074 56.044l-.77 3.1C1009.274 861.864 995.753 892.055 976 919l-1.277 1.752c-5.318 7.25-11.043 13.98-17.192 20.53a197 197 0 0 0-6.219 7.03c-2.832 3.263-5.885 6.079-9.183 8.864a118 118 0 0 0-4.227 3.804C924.836 973.285 909.525 983.102 894 992c-.748.43-1.497.858-2.268 1.3-23.04 13.036-48.268 21.71-74.17 27.012l-2.178.447c-15.814 3.006-31.404 3.532-47.457 3.502l-6.9.011c-6.28.01-12.559.008-18.838.004-6.09-.002-12.18.005-18.269.012-13.982.015-27.965.017-41.947.014a57148 57148 0 0 0-44.106.01q-32.667.013-65.334.008h-2.485l-12.467-.003h-2.5l-5.007-.002q-38.935-.007-77.87.021a103326 103326 0 0 1-96.966.027h-2.327q-17.33-.001-34.66.015-19.727.019-39.455.002a7464 7464 0 0 0-20.108.005q-9.225.014-18.45-.007-3.315-.004-6.631.008c-18.91.064-37.659-1.401-56.045-6.074l-3.1-.77C162.137 1009.274 131.946 995.753 105 976l-1.752-1.277c-7.25-5.318-13.98-11.043-20.53-17.192a197 197 0 0 0-7.03-6.219c-3.263-2.832-6.079-5.885-8.864-9.183a118 118 0 0 0-3.804-4.227C50.715 924.836 40.898 909.525 32 894l-1.3-2.268c-13.036-23.04-21.71-48.268-27.013-74.17l-.446-2.178C.235 799.57-.291 783.98-.261 767.927l-.011-6.9c-.01-6.28-.008-12.559-.004-18.838.002-6.09-.005-12.18-.012-18.269-.015-13.982-.017-27.965-.014-41.947a57148 57148 0 0 0-.01-44.106Q-.324 605.2-.32 572.533v-2.485l.003-12.467v-2.5l.002-5.007q.007-38.935-.021-77.87a103326 103326 0 0 1-.026-99.293q0-17.33-.016-34.66-.019-19.727-.002-39.455c.006-6.703.008-13.405-.005-20.108q-.014-9.225.007-18.45.004-3.315-.008-6.631c-.064-18.91 1.401-37.659 6.073-56.045l.77-3.1C14.728 162.137 28.248 131.946 48 105l1.277-1.752c5.318-7.25 11.043-13.98 17.192-20.53a197 197 0 0 0 6.218-7.03c2.833-3.263 5.886-6.079 9.184-8.864a118 118 0 0 0 4.227-3.804C99.164 50.715 114.475 40.898 130 32c.748-.43 1.497-.858 2.268-1.3 23.04-13.036 48.268-21.71 74.17-27.013l2.178-.446C224.43.235 240.02-.291 256.073-.261"/><path fill="#dadada" d="M640.734 369.348c13.25 11.704 13.25 11.704 18.266 18.652q2.094-.685 4.188-1.375l2.355-.773c2.44-.801 2.44-.801 4.629-1.852 27.026-9.556 59.033-4.245 84.285 7.625 25.31 12.97 45.36 35.5 54.287 62.637l.647 2.18.618 2.082c.517 1.846.977 3.707 1.432 5.57 1.972 3.677 3.52 4.117 7.381 5.292L821 470q1.935.68 3.86 1.395l1.922.696c22.594 8.284 42.34 21.09 55.218 41.909l1.953 2.996c10.74 17.401 15.451 36.939 15.36 57.254l-.015 3.893c-.112 9.004-.72 17.188-3.298 25.857l-1.031 3.695c-8.676 28.548-28.434 50.317-54.344 64.555-18.237 9.661-37.184 11.898-57.536 11.904l-4.496.013q-6.144.017-12.29.022-6.64.01-13.28.029-16.02.034-32.042.052l-9.062.011a82835 82835 0 0 1-69.41.07l-3.273.001c-17.48.013-34.96.046-52.439.088q-26.968.063-53.937.071c-10.08.004-20.162.015-30.243.048q-12.884.044-25.767.028c-4.374-.005-8.747-.003-13.12.022-18.152.099-35.193-.262-52.73-5.609l-2.672-.773c-24.641-7.18-46.936-27.59-59.363-49.606C335.153 603.418 331.248 575.034 338 547c7.88-25.667 22.99-47.582 45-63l3.086-2.191C396.809 474.69 408.729 471.464 421 468l.304-2.332C425.008 437.58 425.008 437.58 429 425l.824-2.996c5.164-17.595 16.76-32.857 29.176-46.004l2.195-2.426c46.929-49.871 129.591-47.11 179.54-4.226"/><path fill="#fed54f" d="M273.07 167.707c7.395 3.346 13.833 8.345 20.39 13.063 4.322 3.098 8.726 6.054 13.165 8.98 7.033 4.646 13.966 9.422 20.875 14.25q4.352 3.029 8.707 6.055 2.74 1.908 5.473 3.828c2.452 1.719 4.915 3.42 7.382 5.117l2.18 1.547 2.043 1.39 1.746 1.215c2.816 1.213 4.932 1.15 7.969.848 2.51-1.122 2.51-1.122 4.852-2.832l2.783-1.89 2.99-2.09q2.412-1.65 4.826-3.296 2.552-1.748 5.096-3.51c5.093-3.52 10.223-6.986 15.348-10.459q2.602-1.765 5.2-3.533c12.694-8.63 25.472-17.132 38.255-25.629q2.826-1.878 5.65-3.761c4.663-.764 8.17-.43 12.375 1.75 10.63 9.11 10.903 28.83 13.043 42.012q.457 2.773.917 5.545 1.193 7.219 2.371 14.44c.96 5.87 1.93 11.74 2.9 17.61q1.127 6.84 2.249 13.68l.415 2.531.762 4.657c.592 3.606 1.222 7.197 1.968 10.775l1.962.34c7.267 1.29 14.469 2.8 21.67 4.41l3.511.784q3.639.815 7.276 1.634c3.728.837 7.46 1.663 11.19 2.488q3.544.796 7.086 1.594l3.393.745 3.108.708 2.746.614L549 294l1 2c-5.617 1.547-11.16 2.504-16.93 3.291-25.697 3.55-50.71 11.662-72.57 25.98-3.131 2.041-5.71 3.596-9.5 3.729-1.852-1.082-1.852-1.082-3.625-2.812l-2.086-1.961L443 322c-11.723-11.405-11.723-11.405-26-19v-2l-2.57-.82c-3.51-1.208-6.886-2.611-10.305-4.055-29.137-11.959-62.163-11.198-91.125.875-10.547 4.775-20.39 10.188-29 18l-2.535 2.145C263.609 332.522 251.928 354.11 247 377l-.535 2.393c-6.419 31.195.24 64.096 17.535 90.607 12.45 17.398 28.713 29.432 47 40-1.294 4.47-2.615 8.914-4.172 13.3-10.491 29.63-11.695 61.177-4.208 91.699C303 617 303 617 303 621c-2.098 1.824-2.098 1.824-5.062 3.688l-3.297 2.085Q292.82 627.89 291 629l-1.928 1.196a893 893 0 0 1-5.885 3.616l-1.845 1.13C269.562 642 269.562 642 263 641c-5.915-3.38-8.197-9.304-10.07-15.592-3.133-14.697-5.627-29.506-8.129-44.321q-.908-5.361-1.822-10.722L239 547l-.511-3.008q-.63-3.683-1.266-7.363l-.66-3.838c-.424-2.732-.424-2.732-1.563-4.791-2.713-.65-5.366-1.17-8.113-1.629l-2.597-.456c-2.866-.5-5.734-.989-8.602-1.477l-6.005-1.048a6982 6982 0 0 0-30.35-5.203q-7.07-1.204-14.139-2.414c-3.396-.577-6.794-1.146-10.191-1.715l-6.331-1.078-2.874-.472c-15.475-2.665-15.475-2.665-19.86-7.133-2.591-4.513-3.073-7.298-1.938-12.375 3.985-10.663 10.751-19.627 17.39-28.758 2.688-3.743 5.271-7.555 7.86-11.367 5.674-8.33 11.42-16.61 17.194-24.872a1178 1178 0 0 0 10.412-15.124c1.302-1.981 1.302-1.981 2.144-4.879h2c-.976-7.36-2.992-12.442-7.312-18.437-.531-.766-1.062-1.53-1.608-2.32a730 730 0 0 0-3.376-4.821c-2.211-3.143-4.371-6.318-6.532-9.495-3.235-4.753-6.495-9.489-9.753-14.226A3017 3017 0 0 1 132.25 329l-2.134-3.169-1.975-2.956-1.765-2.633c-2.932-4.778-3.144-9.785-2.376-15.242 5.73-7.92 14.68-8.93 23.7-10.488l3.794-.679c3.369-.602 6.739-1.192 10.11-1.78 3.475-.61 6.948-1.23 10.421-1.848a4395 4395 0 0 1 35.62-6.19 1815 1815 0 0 1 13.565-2.265l3.79-.629 3.188-.518L231 280l2.755-.56c2.625-1.351 2.625-1.351 3.404-4.957q.415-2.323.763-4.659l.442-2.584c.483-2.848.934-5.7 1.386-8.553q.502-2.992 1.011-5.983c1.31-7.75 2.561-15.508 3.814-23.267a6339 6339 0 0 1 3.539-21.67c.565-3.468 1.11-6.938 1.653-10.409q.527-3.234 1.057-6.467l.442-2.94c1.292-7.677 3.696-14.243 9.609-19.513 4.434-2.04 7.519-2.328 12.195-.731"/><path fill="#f16461" d="m361.688 321.75 3.396-.062c7.458-.035 13.855.922 20.916 3.312l2.085.696C402.417 330.74 417.499 338.937 426 352c.183 5.01-3.447 8.672-6.375 12.438-3.368 4.371-6.325 8.501-8.625 13.562h-2l-1 5h-2l-3 9h-2l-.79 2.977c-.998 3.499-2.289 6.813-3.672 10.176-3.133 7.623-5.592 15.08-7.12 23.188-1.118 5.572-2.735 9.715-7.452 13.133-2.539 1.593-5.116 3.097-7.716 4.589-13.113 7.83-25.051 16.74-35.184 28.244-2.352 2.544-4.107 3.707-7.418 4.795-4.857-.136-7.51-1.802-11.46-4.477l-2.124-1.389c-5.852-3.91-11.118-8.22-16.064-13.236l-2.324-2.293c-14.63-15.227-21.044-33.759-20.988-54.582l-.05-3.645c-.003-7.65.918-14.235 3.362-21.48l1.14-3.531c7.508-20.09 21.98-36.14 41.423-45.344 12.214-5.538 23.82-7.315 37.125-7.375"/><path fill="#b4e3fb" d="M835.188 724.75A73 73 0 0 1 839 727l3.188 1.813C849.153 734.23 853.18 740.283 855 749c1.29 10.92.374 20.21-5 30h-2l-1 5h-2l-.706 2.053c-1.604 3.654-3.743 6.824-5.993 10.1l-1.416 2.086a2364 2364 0 0 1-4.572 6.698q-1.575 2.307-3.147 4.615a7652 7652 0 0 1-4.724 6.922q-4.56 6.676-9.02 13.417l-2.01 3.015a643 643 0 0 0-3.542 5.38c-6.082 9.08-12.99 15.367-23.87 17.714-11.193 1.224-19.588-.676-28.75-7.125-6.676-5.518-11.259-13.218-12.25-21.875-1.138-12.64 2.893-22.167 9.988-32.453l1.745-2.592c1.849-2.742 3.714-5.474 5.58-8.205q2.873-4.246 5.74-8.496 1.884-2.788 3.77-5.572c3.406-5.03 6.77-10.08 10.044-15.198l2.018-3.151q1.717-2.697 3.411-5.408c10.715-16.783 27.234-29.899 47.891-21.175m-252.601 2.934c3.688 2.774 6.864 5.427 9.414 9.316v2h2c4.345 8.51 4.284 18.884 2.344 28.125-4.28 12.692-12.963 23.972-20.469 34.938l-2.807 4.12a6324 6324 0 0 1-5.535 8.108q-3.285 4.81-6.549 9.635l-3.359 4.949-1.454 2.153c-14.892 21.838-14.892 21.838-25.308 24.523-10.662 1.673-20.76 1.744-29.863-4.551l-2.75-1.687c-7.113-7.31-11.127-17.14-11.625-27.313.995-18.904 15.603-35.556 25.813-50.562l3.853-5.694c26.539-39.194 26.539-39.194 39.725-43.385 9.577-1.734 18.42.019 26.57 5.325m132.371 2.847c6.157 5.688 10.546 13.481 11.246 21.914.295 16.86-8.817 29.86-18.027 43.287-2.718 3.977-5.146 7.88-7.176 12.268h-2l-.789 2.163c-2.235 5.234-5.624 9.804-8.774 14.524l-2.056 3.147C680.354 838.398 672.928 847.356 662 854l-1.848 1.168c-8.234 3.183-19.235.962-27.152-2.168v-2l-2.062-.5c-6.996-3.572-10.555-9.956-13.211-17.105-3.335-10.991-1.83-20.73 2.96-31.02L622 800h2l.831-2.229c1.097-2.6 2.317-4.758 3.868-7.108l1.641-2.502 1.777-2.677 1.856-2.815q1.95-2.958 3.909-5.911 2.933-4.43 5.852-8.867c5.884-8.917 11.817-17.796 17.95-26.543l1.45-2.082c6.228-8.799 13.001-13.906 23.366-17.016 11.003-1.1 19.668 1.404 28.457 8.281m-280.207-8.093 2.391.002c7.112.213 12.119 2.34 17.859 6.56l2.813 1.75c7.294 7.503 10.745 16.725 10.75 27.093-.53 14.34-10.066 26.44-17.935 37.78-2.79 4.073-5.452 8.228-8.128 12.377q-1.632 2.513-3.266 5.023a2332 2332 0 0 0-4.83 7.45C415.601 849.588 415.601 849.588 400 856c-2.783.433-5.5.475-8.312.438l-2.268-.01c-5.95-.15-10.23-1.408-15.42-4.428v-2l-1.781-.781c-6.143-3.374-10.262-9.851-12.559-16.324-2.815-12.346-.348-24.278 6.25-34.995a369 369 0 0 1 3.367-5.029l1.84-2.771a1544 1544 0 0 1 5.82-8.663q1.906-2.855 3.807-5.712c7.56-11.337 15.238-22.592 22.959-33.819a327 327 0 0 0 3.514-5.296c1.931-2.827 3.914-4.682 6.596-6.798l2.457-1.98c6.051-4.06 11.343-5.416 18.48-5.394"/></svg>
