<svg xmlns="http://www.w3.org/2000/svg" width="200" height="200" viewBox="-20 0 740 210"><path fill="#181818" fill-rule="evenodd" d="M485.533 39.512c14.29 0 20.146 1.513 29.814 5.06 11.33 4.158 20.263 13.032 24.449 24.287 7.432 19.99 7.531 46.628 0 66.884-4.186 11.255-13.119 20.13-24.449 24.287-9.552 3.505-14.503 5.265-31.067 5.27-12.205.003-26.537-5.27-30.95-9.578l-2.912 2.443c3.869 4.611 5.99 13.314 5.99 19.333V210h-37V41.985h33.449a16.5 16.5 0 0 1-1.897 7.636l2.793 1.017s10.946-11.126 31.78-11.126m11.514 33.203c-8.603-3.697-20.857-3.62-29.279 0-5.036 2.164-9.006 6.783-10.867 12.641-1.243 3.918-2.019 8.295-2.333 12.782a54 54 0 0 0-.158 4.408c-.019 6.176.815 12.349 2.491 17.629 1.861 5.858 5.831 10.479 10.867 12.643 8.602 3.697 20.856 3.62 29.279 0 5.036-2.164 9.007-6.784 10.867-12.643 1.694-5.335 2.517-11.522 2.491-17.68a54 54 0 0 0-.151-4.244c-.311-4.548-1.094-8.968-2.34-12.895-1.86-5.858-5.832-10.477-10.867-12.641" clip-rule="evenodd"/><path fill="#181818" d="M622.233 113.643a68 68 0 0 1 4.412 16.759l.281 3.029h3.808l.3-3.029a84 84 0 0 1 4.046-16.905l25.177-71.486H700l-57.151 144.205v.002c-3.399 8.222-7.926 14.186-13.449 17.72l-.057.038c-5.37 3.69-13.927 5.562-25.433 5.562h-33.589v-33.542H599.8c3.127 0 6.075-1.464 7.966-3.955l1.292-1.702-55.651-128.328h39.807z"/><path fill="#181818" fill-rule="evenodd" d="M169.215 44.782c18.951-6.953 46.522-7.101 65.878 0 11.33 4.158 20.264 13.032 24.449 24.287 4.79 12.882 6.533 28.526 5.152 43.443h-24.583v.037h-65.179c.41 2.577.982 5.059 1.715 7.37 1.861 5.858 5.831 10.479 10.867 12.643 8.602 3.697 20.856 3.62 29.279 0 3.278-1.408 6.105-3.858 8.192-7.013h37.642a83 83 0 0 1-3.085 10.404c-4.185 11.255-13.119 20.13-24.449 24.287-18.952 6.953-46.522 7.102-65.878 0-11.33-4.157-20.264-13.032-24.449-24.287-7.433-19.989-7.532-46.628 0-66.884 4.185-11.255 13.118-20.13 24.449-24.287m47.578 27.677c-8.603-3.697-20.857-3.62-29.279 0-5.036 2.164-9.006 6.784-10.867 12.643-.743 2.343-1.319 4.85-1.729 7.447h54.471c-.412-2.606-.988-5.114-1.729-7.447-1.86-5.859-5.832-10.479-10.867-12.643" clip-rule="evenodd"/><path fill="#181818" d="M378.648 128.502c3.45 0 6.899.517 9.713 1.549a11.17 11.17 0 0 1 6.643 6.593c2.193 5.897 2.193 13.821 0 19.717a11.17 11.17 0 0 1-6.643 6.593c-5.627 2.064-13.797 2.065-19.425 0a11.17 11.17 0 0 1-6.642-6.593c-2.193-5.897-2.193-13.82 0-19.717a11.17 11.17 0 0 1 6.642-6.593c2.814-1.032 6.263-1.549 9.712-1.549"/><path fill="#181818" fill-rule="evenodd" d="M65.903.003C77.23.086 88.545 1.779 97.93 5.13c11.33 4.046 20.264 12.682 24.449 23.636 6.612 17.304 6.612 40.557 0 57.862-3.242 8.485-11.757 20.051-24.617 24.331-11.68 3.887-22.044 4.364-30.822 4.401-9.654.042-24.818-1.286-31.185-7l-2.208 1.853c2.048 3.298 3.161 6.122 3.454 9.975 1.257 16.537 3.009 42.355 3.01 42.387H0V0h65.903zM37 82.796h29.677v-.034c4.638-.157 9.18-.952 12.953-2.371 5.035-1.895 9.006-5.94 10.866-11.068 2.38-6.563 2.264-17.01 0-23.253-1.86-5.128-5.83-9.171-10.866-11.066-3.817-1.436-8.353-2.22-12.953-2.373v-.03H37z" clip-rule="evenodd"/><path fill="#181818" d="M377.154 75.518h-52.901v86.984h-37.099v-49.298c0-17.391 0-29.957 1.338-39.77 1.369-10.035 4.055-16.39 8.984-21.248s11.376-7.506 21.556-8.856c9.958-1.32 22.703-1.32 40.344-1.32h17.778z"/></svg>
