<svg xmlns="http://www.w3.org/2000/svg" width="200" height="200" viewBox="0 0 1056 1024"><path fill="currentColor" d="M512 54.848c252.352 0 457.152 204.8 457.152 457.152S764.352 969.152 512 969.152 54.848 764.352 54.848 512 259.648 54.848 512 54.848M512 0C228.576 0 0 228.576 0 512s228.576 512 512 512 512-228.576 512-512S795.424 0 512 0M367.552 650.976 301.728 550.4h-34.752v100.576h-51.2V385.824h82.272c71.328 0 102.4 21.952 102.4 82.304 0 43.872-16.448 67.648-51.2 76.8l76.8 106.048zm-74.976-137.152c42.048 0 58.496-7.296 58.496-43.872 0-34.752-16.448-42.08-58.496-42.08h-25.6v85.952zm217.6-84.096V499.2h98.752v43.872h-98.752v107.904H460.8V385.824h157.248v43.904zm146.272 89.6c0-102.4 49.376-137.152 126.176-137.152 25.6 0 43.904 3.648 60.352 9.152V435.2a178.6 178.6 0 0 0-58.528-9.152c-51.2 0-76.8 23.776-76.8 93.28 0 73.12 23.776 93.248 73.152 93.248 23.776 0 42.048-3.648 62.176-10.976v43.872c-16.448 5.504-38.4 10.976-64 10.976-71.328-1.824-122.528-27.424-122.528-137.12"/></svg>
