<svg xmlns="http://www.w3.org/2000/svg" fill="none" viewBox="-2 2 43 43" width="200" height="200"><path fill="#798E96" d="M18.675 13.16c0 5.148-4.18 9.32-9.338 9.32C4.182 22.48 0 18.309 0 13.16c0-5.148 4.18-9.32 9.338-9.32 5.157 0 9.337 4.172 9.337 9.32ZM29.752 22.481c-5.157 0-9.338-4.173-9.338-9.32 0-5.149 4.18-9.322 9.338-9.322 5.156 0 9.337 4.173 9.337 9.321s-4.18 9.321-9.337 9.321ZM9.337 42.854c5.157 0 9.338-4.173 9.338-9.321s-4.18-9.321-9.338-9.321C4.181 24.212 0 28.385 0 33.532c0 5.149 4.18 9.322 9.337 9.322Z"></path></svg>
