<svg xmlns="http://www.w3.org/2000/svg" width="200" height="200" viewBox="0 0 512 512"><rect width="512" height="512" fill="#fff" rx="15%"/><path fill="#e05243" d="m260 348-137 33V131l137 32z"/><path fill="#8c3123" d="m256 349 133 32V131l-133 32z"/><path fill="#e05243" d="M256 64v97l58 14V93zm133 67v250l26-13V143zm-133 77v97l58-8v-82zm58 129-58 14v97l58-29z"/><use fill="#8c3123" transform="rotate(180 256 256)"/><path fill="#5e1f18" d="m314 175-58 11-58-11 58-15z"/><path fill="#f2b0a9" d="m314 337-58-11-58 11 58 16z"/></svg>
