<svg xmlns="http://www.w3.org/2000/svg" xmlns:xlink="http://www.w3.org/1999/xlink" x="0" y="0" width="200px" height="200px" viewBox="0 0 553.5 693" style="enable-background:new 0 0 553.5 693;" xml:space="preserve"><style type="text/css">.st0{fill:#00B073;}</style><path class="st0" d="M496.7,57.4C505.8,44,497.6,27,481.9,27H230.6c-52.9,0-95,14.1-126.2,42.2c-31,27.9-48.9,68.1-53.7,120.4l0,0  l-12,137.1l0,0c-4.4,52.4,6.5,92.5,32.7,120.5c26.3,28.1,66,42.2,118.9,42.2h57.4v-0.4c11.3-1.6,17.5-8.5,18.6-20.7l5.9-67.3  c1.2-10.9-6.7-20.8-17.6-22c-0.8-0.1-1.7-0.1-2.5-0.1h-32c-20.8,0-35.3-4.5-43.5-13.6c-8.2-9-11.4-24.3-9.6-45.7l10.8-122.9  c1.9-21.4,7.7-36.7,17.6-45.7c9.8-9,25.1-13.6,45.9-13.6h169.7c20,0,39.4-10.6,51-27.9L496.7,57.4z"></path><path class="st0" d="M13.8,642.5c-9.1,13.5-0.8,30.4,14.8,30.4h255c52.9,0,95-14.1,126.2-42.2c31.1-27.9,49-68.1,53.7-120.4l0,0  l12-137.1l0,0c4.4-52.4-6.5-92.6-32.6-120.5c-26.3-28.1-66-42.2-118.9-42.2h-57.4v0.4c-11.3,1.6-17.5,8.5-18.6,20.7l-5.9,67.3  c-1.2,10.9,6.7,20.8,17.6,22c0.8,0.1,1.7,0.1,2.5,0.1h32c20.8,0,35.3,4.5,43.5,13.5s11.4,24.3,9.6,45.7l-10.8,122.9  c-1.9,21.4-7.7,36.7-17.6,45.7s-25.1,13.6-45.9,13.6H99.8c-20,0-39.5,10.6-51,27.9L13.8,642.5z"></path><g><path class="st0" d="M538.3,42.3c0,7.1-5.6,12.6-12.8,12.6c-7.2,0-12.9-5.6-12.9-12.6c0-6.9,5.7-12.5,12.9-12.5   C532.8,29.8,538.3,35.4,538.3,42.3z M515.9,42.3c0,5.6,4.1,10,9.7,10c5.5,0,9.5-4.4,9.5-9.9c0-5.6-4-10-9.6-10   C520,32.3,515.9,36.8,515.9,42.3z M523.6,48.9h-2.9V36.4c1.1-0.2,2.7-0.4,4.8-0.4c2.4,0,3.4,0.4,4.3,0.9c0.7,0.5,1.2,1.5,1.2,2.7   c0,1.4-1.1,2.4-2.6,2.9v0.2c1.2,0.5,1.9,1.4,2.3,3c0.4,1.9,0.6,2.7,0.9,3.1h-3.1c-0.4-0.5-0.6-1.6-1-3c-0.2-1.4-1-2-2.6-2h-1.4   V48.9z M523.7,41.8h1.4c1.6,0,2.9-0.5,2.9-1.8c0-1.1-0.8-1.9-2.7-1.9c-0.8,0-1.3,0.1-1.6,0.2V41.8z"></path></g></svg>
