<svg xmlns="http://www.w3.org/2000/svg" xml:space="preserve" width="200" height="200" viewBox="0 0 553.5 693"><path fill="#00b073" d="M496.7 57.4c9.1-13.4.9-30.4-14.8-30.4H230.6c-52.9 0-95 14.1-126.2 42.2-31 27.9-48.9 68.1-53.7 120.4l-12 137.1c-4.4 52.4 6.5 92.5 32.7 120.5 26.3 28.1 66 42.2 118.9 42.2h57.4v-.4q16.95-2.4 18.6-20.7l5.9-67.3c1.2-10.9-6.7-20.8-17.6-22-.8-.1-1.7-.1-2.5-.1h-32c-20.8 0-35.3-4.5-43.5-13.6-8.2-9-11.4-24.3-9.6-45.7l10.8-122.9c1.9-21.4 7.7-36.7 17.6-45.7 9.8-9 25.1-13.6 45.9-13.6H411c20 0 39.4-10.6 51-27.9z"/><path fill="#00b073" d="M13.8 642.5c-9.1 13.5-.8 30.4 14.8 30.4h255c52.9 0 95-14.1 126.2-42.2 31.1-27.9 49-68.1 53.7-120.4l12-137.1c4.4-52.4-6.5-92.6-32.6-120.5-26.3-28.1-66-42.2-118.9-42.2h-57.4v.4q-16.95 2.4-18.6 20.7l-5.9 67.3c-1.2 10.9 6.7 20.8 17.6 22 .8.1 1.7.1 2.5.1h32q31.2 0 43.5 13.5c12.3 13.5 11.4 24.3 9.6 45.7l-10.8 122.9c-1.9 21.4-7.7 36.7-17.6 45.7s-25.1 13.6-45.9 13.6H99.8c-20 0-39.5 10.6-51 27.9zM538.3 42.3c0 7.1-5.6 12.6-12.8 12.6s-12.9-5.6-12.9-12.6c0-6.9 5.7-12.5 12.9-12.5 7.3 0 12.8 5.6 12.8 12.5m-22.4 0c0 5.6 4.1 10 9.7 10 5.5 0 9.5-4.4 9.5-9.9 0-5.6-4-10-9.6-10-5.5-.1-9.6 4.4-9.6 9.9m7.7 6.6h-2.9V36.4c1.1-.2 2.7-.4 4.8-.4 2.4 0 3.4.4 4.3.9.7.5 1.2 1.5 1.2 2.7 0 1.4-1.1 2.4-2.6 2.9v.2c1.2.5 1.9 1.4 2.3 3 .4 1.9.6 2.7.9 3.1h-3.1c-.4-.5-.6-1.6-1-3-.2-1.4-1-2-2.6-2h-1.4v5.1zm.1-7.1h1.4c1.6 0 2.9-.5 2.9-1.8 0-1.1-.8-1.9-2.7-1.9-.8 0-1.3.1-1.6.2z"/></svg>
