<svg xmlns="http://www.w3.org/2000/svg" width="200" height="200" viewBox="0 0 1024 1024"><path fill="#e01e5a" d="M244.224 643.84c0 59.221-45.099 107.264-100.779 107.264-55.637 0-100.778-48.043-100.778-107.264s45.141-107.264 100.778-107.264h100.779zm50.39 0c0-59.307 45.14-107.307 100.82-107.307 55.638 0 100.78 48.043 100.78 107.264v268.288c0 59.264-45.142 107.307-100.78 107.307-55.68 0-100.82-48.043-100.82-107.307V643.797z"/><path fill="#36c5f0" d="M395.392 214.613c-55.637 0-100.779-48.042-100.779-107.306S339.755 0 395.392 0c55.68 0 100.821 48.043 100.821 107.307v107.306zm0 53.632c55.68 0 100.821 48.086 100.821 107.307 0 59.307-45.141 107.307-100.821 107.307H143.445c-55.637 0-100.778-48.043-100.778-107.307 0-59.221 45.141-107.307 100.778-107.307z"/><path fill="#2eb67d" d="M798.55 375.552c0-59.221 45.098-107.307 100.778-107.307 55.637 0 100.779 48.086 100.779 107.307 0 59.307-45.142 107.307-100.779 107.307H798.549zm-50.39 0c0 59.307-45.141 107.307-100.821 107.307-55.638 0-100.779-48.043-100.779-107.307V107.307C546.56 48.043 591.701 0 647.339 0c55.68 0 100.821 48.043 100.821 107.307z"/><path fill="#ecb22e" d="M647.381 804.779c55.638 0 100.779 48.042 100.779 107.306s-45.141 107.307-100.779 107.307c-55.68 0-100.821-48.043-100.821-107.307V804.78zm0-53.675c-55.68 0-100.821-48.043-100.821-107.307 0-59.221 45.141-107.306 100.821-107.306h251.904c55.68 0 100.779 48.085 100.779 107.306 0 59.307-45.099 107.307-100.779 107.307z"/></svg>
