<svg xmlns="http://www.w3.org/2000/svg" width="200" height="200" fill="none" viewBox="0 0 72 72"><circle cx="36" cy="36" r="35" stroke="#a0cc40" stroke-width="2"/><path fill="#a0cc40" d="M13.492 16.202h6.793l-1.43 6.792h-6.792zm6.344 9.741h6.792l-1.43 6.792h-6.792z"/><path fill="#a0cc40" fill-rule="evenodd" d="M21.981 22.961c-.136-.136.888-5.49 1.208-6.312.163-.42 1.151-.447 15.735-.447 13.276 0 15.582.053 15.702.366.077.201-.099 1.538-.391 2.972-.435 2.13-.669 2.992-.348 3.336.257.275.868.22 2.015.22 2.152 0 2.196.012 2.057.574-.078.316-1.59 7.412-3.361 15.768-1.77 8.356-3.278 15.393-3.35 15.64-.125.418-1.01.446-13.894.446-7.568 0-13.808-.086-13.866-.191s1.414-7.316 3.27-16.023c1.858-8.707 3.329-15.917 3.269-16.023s-1.864-.191-4.01-.191-3.962-.06-4.036-.135M35.671 44.7q1.806.825 4.196.824a13.3 13.3 0 0 0 3.24-.399 9.6 9.6 0 0 0 3.107-1.407l-2.496-3.638a5.3 5.3 0 0 1-1.514.77 6 6 0 0 1-1.647.239q-1.407 0-2.15-.558-.486-.395-.642-1.142H47.94q.134-.584.212-1.221.107-.638.107-1.302 0-1.885-.877-3.32-.876-1.433-2.523-2.256-1.646-.824-3.983-.824-2.709 0-4.753 1.09-2.019 1.087-3.134 2.973-1.116 1.886-1.115 4.276 0 2.045 1.009 3.558 1.008 1.514 2.788 2.337m2.337-8.205h4.774a1.8 1.8 0 0 0-.127-.664 1.7 1.7 0 0 0-.743-.93q-.531-.345-1.301-.345-1.09 0-1.727.584-.582.534-.876 1.355" clip-rule="evenodd"/></svg>
