<svg xmlns="http://www.w3.org/2000/svg" width="200" height="200" viewBox="25 0 142 165"><path fill="#1678fe" d="M108 0h4c5.532 22.525 10.827 45.097 15.966 67.715q1.366 6.008 2.737 12.014A38952 38952 0 0 1 136 103l.487-2.171c.737-3.24 1.5-6.471 2.263-9.704l.766-3.418.78-3.262.7-3.015C142 79 142 79 144.105 77.66L146 77c2.256 3.383 2.996 6.526 3.88 10.421l.532 2.283c.58 2.49 1.15 4.983 1.72 7.476l1.203 5.197q1.259 5.45 2.506 10.9 1.6 6.981 3.222 13.958 1.243 5.367 2.476 10.737.59 2.574 1.189 5.146.832 3.6 1.651 7.202c.166.706.33 1.413.5 2.141.805 3.565 1.409 6.88 1.121 10.539-1 1-1 1-3.278 1.123l-3.081-.003-3.523.004-3.9-.01h-4.079q-5.553-.001-11.107-.013-5.797-.007-11.595-.008-10.986-.005-21.972-.021-12.504-.016-25.008-.022Q52.73 164.034 27 164c-1.142-3.426-.824-4.658-.012-8.114l.728-3.154.811-3.4.812-3.485c.858-3.68 1.728-7.357 2.599-11.035l1.748-7.474Q35.83 118.166 38 109l4-1q.721 2.124 1.438 4.25l.808 2.39c.674 2.11 1.229 4.211 1.754 6.36 4.075-14.458 7.324-29.115 10.688-43.75q1.332-5.795 2.67-11.588.827-3.585 1.65-7.169l.749-3.25.656-2.857C63 50 63 50 64 47l3-1c2.764 2.764 3.088 5.864 3.91 9.563l.522 2.263q.823 3.586 1.63 7.174.817 3.588 1.641 7.174.513 2.232 1.015 4.467c.84 3.78.84 3.78 2.282 7.359l5-21 4-1 4 9 .6-2.65q2.798-12.342 5.607-24.679 1.443-6.343 2.882-12.688 1.386-6.12 2.781-12.235.533-2.34 1.061-4.679.739-3.265 1.487-6.53l.854-3.761C107 1 107 1 108 0"/><path fill="#167afe" d="M66 46c4.012 2.675 4.291 5.677 5.367 10.129l.614 2.492a715 715 0 0 1 1.255 5.259c.626 2.629 1.3 5.243 1.975 7.86C78.07 83.416 78.004 92.421 75 104l-.823 3.623c-.786 3.45-1.63 6.882-2.49 10.314l-1.84 7.493-.929 3.784c-1.748 7.206-3.397 14.435-5.052 21.663l-.702 3.064-.61 2.678A395 395 0 0 1 61 163h48v1H27c-1.142-3.426-.824-4.658-.012-8.114l.728-3.154.811-3.4.812-3.485c.858-3.68 1.728-7.357 2.599-11.035l1.748-7.474Q35.83 118.166 38 109l4-1q.721 2.124 1.438 4.25l.808 2.39c.674 2.11 1.229 4.211 1.754 6.36 4.075-14.458 7.324-29.115 10.688-43.75q1.332-5.795 2.67-11.588.827-3.585 1.65-7.169l.749-3.25.656-2.857C63 50 63 50 64 47z"/><path fill="#36e1e2" d="m84 62 4 1q.699 2.371 1.375 4.75l.773 2.672c.727 3.055 1.266 6.042 1.754 9.14 1.078 6.66 2.648 13.148 4.285 19.688 3.018 12.249 5.788 24.538 8.415 36.876 1.411 6.576 2.92 13.06 4.856 19.502C110 158 110 158 110 163H61c.62-4.953 1.191-9.256 2.383-14l.838-3.387.904-3.613a1217 1217 0 0 0 7.438-32.062l.435-2.001A2716 2716 0 0 0 77.282 87.9q.62-2.954 1.243-5.907.77-3.655 1.522-7.315l.691-3.288.595-2.874C81.968 66.122 82.803 64.16 84 62"/><path fill="#37e1e2" d="m144 77 3 1c1.039 2.834 1.039 2.834 1.958 6.593l.509 2.04c.524 2.119 1.03 4.242 1.533 6.367l.928 3.826c.933 3.89 1.843 7.785 2.744 11.682l.992 4.272q1.026 4.423 2.046 8.848 1.308 5.658 2.63 11.314 1.021 4.387 2.033 8.776.483 2.088.971 4.174.677 2.904 1.343 5.812l.77 3.328c.504 2.753.729 5.18.543 7.968-1 1-1 1-2.766 1.114l-2.27-.016-2.45-.01-2.577-.025-2.587-.014q-3.175-.02-6.35-.049l.087-3.103c-.082-3.687-.576-6.695-1.478-10.256l-.896-3.605-.963-3.786c-.645-2.603-1.283-5.208-1.922-7.812l-.947-3.844a700 700 0 0 1-3.381-14.344l-.52-2.175c-1.939-8.906.36-17.31 2.458-26.013l.658-2.86.65-2.73.584-2.46C142 79 142 79 144 77"/><path fill="#38e1e2" d="m40 108 3 1c.95 2.371.95 2.371 1.688 5.438l.761 2.996c1.456 9.427-.086 17.567-2.386 26.754-2.451 9.827-2.451 9.827-4.063 19.812H27c-1.137-3.412-.833-4.652-.044-8.098l.709-3.144.792-3.39.797-3.478q.838-3.64 1.688-7.278a2223 2223 0 0 0 2.568-11.186l1.635-7.059.773-3.402.738-3.126.641-2.765C38 109 38 109 40 108"/></svg>
