<svg xmlns="http://www.w3.org/2000/svg" width="200" height="200" viewBox="0 0 54 54"><path fill="#102147" d="M0 0h54v54H0z"/><path fill="#007bfc" d="M20.6 9.8c-.4-.6-1-1-1.8-1H8.1c-1.2 0-2.1.9-2.1 2.1 0 .4.1.8.3 1.1l2.2 3.5 14.3-2.2z"/><path fill="#51b9ff" d="M22.8 13.3c-.4-.6-1.1-1-1.8-1H10.3c-1.2 0-2.1.9-2.1 2.1 0 .4.1.8.3 1.1l3.1 4.9 14.3-2.2z"/><path fill="#fff" d="M11.6 20.4c-.2-.3-.3-.7-.3-1.1 0-1.2.9-2.1 2.1-2.1h10.8c.7 0 1.4.4 1.8 1l9.6 15.3c.2.3.3.7.3 1.1s-.1.8-.3 1.1l-5.4 8.5c-.6 1-1.9 1.3-2.9.6q-.45-.3-.6-.6zM38.7 25c.6 1 1.9 1.3 2.9.6q.45-.3.6-.6l1.8-2.9 3.5-5.6c.2-.3.3-.7.3-1.1s-.1-.8-.3-1.1l-2.8-4.4c-.4-.6-1.1-1-1.8-1H32.3c-1.2 0-2.1.9-2.1 2.1 0 .4.1.8.3 1.1z"/></svg>
