<svg xmlns="http://www.w3.org/2000/svg" width="200" height="200" viewBox="33.9 23.5 268.8 53.5"><path fill="#005bac" d="M290 61.5c-4.1 4.6-29.3 36.7-56.9 26.7-3.6-1.3-7.2-3.3-10.9-6.2 3.8.2 7.5 0 10.9-.3 5.3-.5 9.8-1.5 12.4-2.9 6.1-3 4.5-13.2-12.4-16.2-.4-.1-.9-.2-1.3-.2-11.3-1.7-19.5 1.7-23.7 5.3-.1 0-.3-.1-.4-.2-2.6-1.1-5.2-2.2-7.8-3.2 20-.9 23.4-14.1 4.8-26.4-7.5-5-16.3-9.4-25.6-13.4-10.7-4.5-22.3-8.5-33.7-11.7-7.9-2.2-15.7-4.1-23.1-5.7C109.9 4.6 98.7 2.8 90 2 71.1.3 58.1 1.5 50.8 5.8 47.7 7.6 46 10 46 13v.3c0 1.6.5 3.3 1.4 5.2 3 6.3 11.1 13.5 24.1 21.5C83 47.1 100.3 55.2 115 60.3c.1.8.2 1.6.6 2.6.9 2.4 3.1 5.2 6.7 8.3q.75.75 1.8 1.5c5.7 4.5 12.7 8.7 21.1 12.2l.2.1c10.9 4.6 22.6 8.2 33.7 10.8 16.7 3.8 32.2 5.4 42.6 4.9.5-.2.7-.4.4-.6-.1-.1-.2-.2-.4-.2-5.7-.4-12.9-1.2-21.7-2.3-7.3-1-14.3-2.3-21-3.8q-18.15-4.05-33-10.5c-.2-.1-.4-.2-.7-.3-6.7-2.9-10.5-5.7-11.4-8.2-1.2-3.4 1.9-5.2 5-6 2 .7 4.1 1.3 6.4 1.9 10.2 2.9 22.2 5.5 33.7 7.4 11.1 1.9 21.7 3.2 29.5 3.6 7.6 6.7 16.1 10.2 24.6 11.3 15.2 1.8 30.4-4.1 41.1-13.8 7.3-6.6 13.2-13 16.3-17zM145.3 30.3c8.5.3 17.4 1.3 26.7 3.1 2.5.5 4.8 1 7 1.5 6.7 1.6 11.5 3.3 14.5 5.2 3.4 2.1 4.1 3.7 2.1 4.9-1.5.9-4.6 1.5-9.4 2-2.4.2-4.8.4-7.2.4-2.4.1-4.9 0-7.4 0-4.9-.2-9.8-.9-14.8-1.8-4.9-1-8.3-2-10-3-1.3-.8-1.6-1.4-1-1.9.4-.2 1.1-.4 2.3-.5.9-.1 1.5-.4 2.1-.7 1.1-.7 1.4-1.6.8-2.9-.7-1.3-2-2.6-4-3.8-.5-.3-1.1-.6-1.7-1-.7-.4-1.6-.8-2.6-1.3.9-.2 1.7-.2 2.6-.2m0 20.7c-6-.5-11.4-.5-16.2.1-2.7.3-5 .7-6.9 1.3-1.3.4-2.5.9-3.4 1.4-.3-.1-.6-.2-1-.4-12.8-4.5-26.4-14.1-19.6-18.1q7.2-4.2 24-4.8c2-.1 4.1-.1 6.3-.1-1.7 5.1 2.7 10.8 12.9 17.1 1.3.8 2.6 1.6 3.8 2.3.9.5 1.7 1 2.6 1.4-.8-.1-1.7-.1-2.5-.2m61.4 28.4c-8.5-.8-18.3-2.9-27.7-5.2-10.6-2.7-20.7-5.7-27.7-7.9 6.4-1.5 14.8-2.2 25.6-2h2.1c10.8.4 20 1.9 27.8 4.6-2.2 2.6-3 6-.1 10.5m26.4-12.5c.4 0 .7 0 1.1.1 3.6.4 6.7.9 9.8 3.1 3.5 2.4 3.5 4.4 2.1 6.5-1.3 2.1-7.1 2.9-13 3.2-4.6.2-9.3.1-12.2 0-4.8-5.1 1-13.4 12.2-12.9"/></svg>
