<svg xmlns="http://www.w3.org/2000/svg" width="200" height="200" viewBox="102.366 133.813 820.583 756.374"><path fill="#4d70d4" d="M107.287 512.928c0-79.047-.045-158.094.03-237.141.02-21.15 1.256-42.135 9.203-62.181 23.74-59.883 67.166-95.237 130.865-105.518 8.582-1.385 17.221-1.667 25.889-1.667 159.718.009 319.436-.021 479.155.019 74.315.019 133.182 41.364 157.993 111.108 6.12 17.204 8.542 35.132 8.54 53.403-.022 161.072.122 322.144-.072 483.215-.091 75.418-50.342 141.59-119.876 158.868-15.044 3.738-30.331 5.422-45.807 5.423-160.26.014-320.521.29-480.78-.12-71.188-.182-121.825-33.848-152.353-97.864-10.72-22.48-12.842-46.672-12.817-71.218.081-78.774.03-157.551.03-236.327m283.66-4.813v136.454H254.062v138.583h138.402V645.64h138.004v137.437h138.576V644.705h137.443V505.977H668.339V367.658H530.496V229.98H391.685v138.154H254.216c-.365 1.798-.66 2.576-.661 3.354-.035 43.047.079 86.094-.188 129.139-.042 6.738 3.542 6.504 8.205 6.495 39.798-.073 79.596-.06 119.394-.007 3.173.005 6.462-.676 9.981 1"/></svg>
