<svg xmlns="http://www.w3.org/2000/svg" width="200" height="200" viewBox="0 0 216.926 216.926"><svg width="216.926" height="216.926" viewBox="0 0 216.926 216.926"><g fill="#f97317" stroke="transparent"><path d="M0 108.463C0 48.561 48.561 0 108.463 0s108.463 48.561 108.463 108.463-48.561 108.463-108.463 108.463S0 168.365 0 108.463zm108.463 103.316c57.06 0 103.316-46.256 103.316-103.316S165.523 5.147 108.463 5.147 5.147 51.403 5.147 108.463s46.256 103.316 103.316 103.316z"/><circle cx="108.463" cy="108.463" r="107.378" stroke="none"/></g><svg width="88.848" height="128.827" transform="translate(64.039 44.05)" viewBox="0 0 88.848 128.827"><svg xmlns="http://www.w3.org/2000/svg" width="88.848" height="128.827" viewBox="5 13.445 56.297 81.629"><path fill="#fff" d="M58.482 47.222h-2.815V35.963c0-12.436-10.08-22.518-22.519-22.518S10.63 23.528 10.63 35.963v11.259H7.815A2.813 2.813 0 0 0 5 50.037v42.222a2.813 2.813 0 0 0 2.815 2.815h50.667a2.813 2.813 0 0 0 2.815-2.815V50.037a2.815 2.815 0 0 0-2.815-2.815M35.963 72.039V86.63h-5.63V72.039c-3.271-1.163-5.63-4.255-5.63-7.928a8.445 8.445 0 0 1 16.888 0c.002 3.673-2.357 6.765-5.628 7.928m11.259-24.817H19.074V35.963c0-7.76 6.314-14.074 14.074-14.074s14.074 6.314 14.074 14.074z"/></svg></svg></svg></svg>
